<svg width="44" height="44" viewBox="0 0 44 44" fill="none" xmlns="http://www.w3.org/2000/svg">
<path d="M0.5 6.4C0.5 5.27165 0.500389 4.45545 0.552836 3.81352C0.604807 3.17744 0.705391 2.75662 0.881477 2.41103C1.21703 1.75247 1.75247 1.21703 2.41103 0.881477C2.75662 0.705391 3.17744 0.604807 3.81352 0.552836C4.45545 0.500389 5.27165 0.5 6.4 0.5H37.6C38.7284 0.5 39.5446 0.500389 40.1865 0.552836C40.8226 0.604807 41.2434 0.705391 41.589 0.881477C42.2475 1.21703 42.783 1.75247 43.1185 2.41103C43.2946 2.75662 43.3952 3.17744 43.4472 3.81352C43.4996 4.45545 43.5 5.27165 43.5 6.4V37.6C43.5 38.7284 43.4996 39.5446 43.4472 40.1865C43.3952 40.8226 43.2946 41.2434 43.1185 41.589C42.783 42.2475 42.2475 42.783 41.589 43.1185C41.2434 43.2946 40.8226 43.3952 40.1865 43.4472C39.5446 43.4996 38.7284 43.5 37.6 43.5H6.4C5.27165 43.5 4.45545 43.4996 3.81352 43.4472C3.17744 43.3952 2.75662 43.2946 2.41103 43.1185C1.75247 42.783 1.21703 42.2475 0.881477 41.589C0.705391 41.2434 0.604807 40.8226 0.552836 40.1865C0.500389 39.5446 0.5 38.7284 0.5 37.6V6.4Z" stroke="#E9E9E9"/>
<path d="M27 25.246V32.118C27 32.2064 26.9766 32.2933 26.932 32.3697C26.8875 32.4462 26.8235 32.5094 26.7465 32.5531C26.6696 32.5967 26.5824 32.6191 26.4939 32.618C26.4055 32.6169 26.3189 32.5924 26.243 32.547L22 30.001L17.757 32.547C17.681 32.5925 17.5944 32.617 17.5058 32.618C17.4173 32.6191 17.33 32.5965 17.253 32.5528C17.176 32.5091 17.112 32.4457 17.0676 32.3691C17.0231 32.2925 16.9998 32.2055 17 32.117V25.247C15.7061 24.211 14.766 22.7988 14.3095 21.2055C13.8529 19.6121 13.9026 17.9163 14.4515 16.3524C15.0004 14.7885 16.0216 13.4337 17.3738 12.4752C18.726 11.5168 20.3425 11.002 22 11.002C23.6575 11.002 25.274 11.5168 26.6262 12.4752C27.9784 13.4337 28.9996 14.7885 29.5485 16.3524C30.0974 17.9163 30.1471 19.6121 29.6905 21.2055C29.234 22.7988 28.2939 24.211 27 25.247V25.246ZM19 26.419V29.469L22 27.669L25 29.469V26.419C24.0468 26.8044 23.0282 27.0021 22 27.001C20.9718 27.0021 19.9532 26.8044 19 26.419ZM22 25.001C23.5913 25.001 25.1174 24.3688 26.2426 23.2436C27.3679 22.1184 28 20.5922 28 19.001C28 17.4097 27.3679 15.8835 26.2426 14.7583C25.1174 13.6331 23.5913 13.001 22 13.001C20.4087 13.001 18.8826 13.6331 17.7574 14.7583C16.6321 15.8835 16 17.4097 16 19.001C16 20.5922 16.6321 22.1184 17.7574 23.2436C18.8826 24.3688 20.4087 25.001 22 25.001Z" fill="#161616"/>
</svg>
