<svg width="44" height="44" viewBox="0 0 44 44" fill="none" xmlns="http://www.w3.org/2000/svg">
<path d="M0.5 6.4C0.5 5.27165 0.500389 4.45545 0.552836 3.81352C0.604807 3.17744 0.705391 2.75662 0.881477 2.41103C1.21703 1.75247 1.75247 1.21703 2.41103 0.881477C2.75662 0.705391 3.17744 0.604807 3.81352 0.552836C4.45545 0.500389 5.27165 0.5 6.4 0.5H37.6C38.7284 0.5 39.5446 0.500389 40.1865 0.552836C40.8226 0.604807 41.2434 0.705391 41.589 0.881477C42.2475 1.21703 42.783 1.75247 43.1185 2.41103C43.2946 2.75662 43.3952 3.17744 43.4472 3.81352C43.4996 4.45545 43.5 5.27165 43.5 6.4V37.6C43.5 38.7284 43.4996 39.5446 43.4472 40.1865C43.3952 40.8226 43.2946 41.2434 43.1185 41.589C42.783 42.2475 42.2475 42.783 41.589 43.1185C41.2434 43.2946 40.8226 43.3952 40.1865 43.4472C39.5446 43.4996 38.7284 43.5 37.6 43.5H6.4C5.27165 43.5 4.45545 43.4996 3.81352 43.4472C3.17744 43.3952 2.75662 43.2946 2.41103 43.1185C1.75247 42.783 1.21703 42.2475 0.881477 41.589C0.705391 41.2434 0.604807 40.8226 0.552836 40.1865C0.500389 39.5446 0.5 38.7284 0.5 37.6V6.4Z" stroke="#E9E9E9"/>
<path d="M22 32C16.477 32 12 27.523 12 22C12 16.477 16.477 12 22 12C27.523 12 32 16.477 32 22C32 27.523 27.523 32 22 32ZM22 30C24.1217 30 26.1566 29.1571 27.6569 27.6569C29.1571 26.1566 30 24.1217 30 22C30 19.8783 29.1571 17.8434 27.6569 16.3431C26.1566 14.8429 24.1217 14 22 14C19.8783 14 17.8434 14.8429 16.3431 16.3431C14.8429 17.8434 14 19.8783 14 22C14 24.1217 14.8429 26.1566 16.3431 27.6569C17.8434 29.1571 19.8783 30 22 30ZM17 19L20 15.5L23 19H21V23H19V19H17ZM27 25L24 28.5L21 25H23V21H25V25H27Z" fill="#161616"/>
</svg>
