<svg width="44" height="44" viewBox="0 0 44 44" fill="none" xmlns="http://www.w3.org/2000/svg">
<path d="M0.5 6.4C0.5 5.27165 0.500389 4.45545 0.552836 3.81352C0.604807 3.17744 0.705391 2.75662 0.881477 2.41103C1.21703 1.75247 1.75247 1.21703 2.41103 0.881477C2.75662 0.705391 3.17744 0.604807 3.81352 0.552836C4.45545 0.500389 5.27165 0.5 6.4 0.5H37.6C38.7284 0.5 39.5446 0.500389 40.1865 0.552836C40.8226 0.604807 41.2434 0.705391 41.589 0.881477C42.2475 1.21703 42.783 1.75247 43.1185 2.41103C43.2946 2.75662 43.3952 3.17744 43.4472 3.81352C43.4996 4.45545 43.5 5.27165 43.5 6.4V37.6C43.5 38.7284 43.4996 39.5446 43.4472 40.1865C43.3952 40.8226 43.2946 41.2434 43.1185 41.589C42.783 42.2475 42.2475 42.783 41.589 43.1185C41.2434 43.2946 40.8226 43.3952 40.1865 43.4472C39.5446 43.4996 38.7284 43.5 37.6 43.5H6.4C5.27165 43.5 4.45545 43.4996 3.81352 43.4472C3.17744 43.3952 2.75662 43.2946 2.41103 43.1185C1.75247 42.783 1.21703 42.2475 0.881477 41.589C0.705391 41.2434 0.604807 40.8226 0.552836 40.1865C0.500389 39.5446 0.5 38.7284 0.5 37.6V6.4Z" stroke="#E9E9E9"/>
<path d="M29.938 18.0009H31C31.5304 18.0009 32.0391 18.2116 32.4142 18.5867C32.7893 18.9617 33 19.4704 33 20.0009V24.0009C33 24.5313 32.7893 25.04 32.4142 25.4151C32.0391 25.7902 31.5304 26.0009 31 26.0009H29.938C29.6942 27.9342 28.7533 29.7121 27.2917 31.0009C25.8302 32.2897 23.9486 33.0008 22 33.0009V31.0009C23.5913 31.0009 25.1174 30.3687 26.2426 29.2435C27.3679 28.1183 28 26.5922 28 25.0009V19.0009C28 17.4096 27.3679 15.8835 26.2426 14.7582C25.1174 13.633 23.5913 13.0009 22 13.0009C20.4087 13.0009 18.8826 13.633 17.7574 14.7582C16.6321 15.8835 16 17.4096 16 19.0009V26.0009H13C12.4696 26.0009 11.9609 25.7902 11.5858 25.4151C11.2107 25.04 11 24.5313 11 24.0009V20.0009C11 19.4704 11.2107 18.9617 11.5858 18.5867C11.9609 18.2116 12.4696 18.0009 13 18.0009H14.062C14.306 16.0678 15.2471 14.2901 16.7086 13.0016C18.1701 11.713 20.0516 11.002 22 11.002C23.9484 11.002 25.8299 11.713 27.2914 13.0016C28.7529 14.2901 29.694 16.0678 29.938 18.0009ZM13 20.0009V24.0009H14V20.0009H13ZM30 20.0009V24.0009H31V20.0009H30ZM17.76 25.7859L18.82 24.0899C19.7731 24.6869 20.8754 25.0027 22 25.0009C23.1246 25.0027 24.2269 24.6869 25.18 24.0899L26.24 25.7859C24.9693 26.582 23.4995 27.0032 22 27.0009C20.5005 27.0032 19.0307 26.582 17.76 25.7859Z" fill="#161616"/>
</svg>
