<svg width="44" height="44" viewBox="0 0 44 44" fill="none" xmlns="http://www.w3.org/2000/svg">
<path d="M0.5 6.4C0.5 5.27165 0.500389 4.45545 0.552836 3.81352C0.604807 3.17744 0.705391 2.75662 0.881477 2.41103C1.21703 1.75247 1.75247 1.21703 2.41103 0.881477C2.75662 0.705391 3.17744 0.604807 3.81352 0.552836C4.45545 0.500389 5.27165 0.5 6.4 0.5H37.6C38.7284 0.5 39.5446 0.500389 40.1865 0.552836C40.8226 0.604807 41.2434 0.705391 41.589 0.881477C42.2475 1.21703 42.783 1.75247 43.1185 2.41103C43.2946 2.75662 43.3952 3.17744 43.4472 3.81352C43.4996 4.45545 43.5 5.27165 43.5 6.4V37.6C43.5 38.7284 43.4996 39.5446 43.4472 40.1865C43.3952 40.8226 43.2946 41.2434 43.1185 41.589C42.783 42.2475 42.2475 42.783 41.589 43.1185C41.2434 43.2946 40.8226 43.3952 40.1865 43.4472C39.5446 43.4996 38.7284 43.5 37.6 43.5H6.4C5.27165 43.5 4.45545 43.4996 3.81352 43.4472C3.17744 43.3952 2.75662 43.2946 2.41103 43.1185C1.75247 42.783 1.21703 42.2475 0.881477 41.589C0.705391 41.2434 0.604807 40.8226 0.552836 40.1865C0.500389 39.5446 0.5 38.7284 0.5 37.6V6.4Z" stroke="#E9E9E9"/>
<path d="M18.965 28C18.8461 28.8343 18.4302 29.5977 17.7937 30.1499C17.1571 30.7022 16.3427 31.0063 15.5 31.0063C14.6573 31.0063 13.8429 30.7022 13.2063 30.1499C12.5698 29.5977 12.1539 28.8343 12.035 28H11V16C11 15.7348 11.1054 15.4804 11.2929 15.2929C11.4804 15.1054 11.7348 15 12 15H26C26.2652 15 26.5196 15.1054 26.7071 15.2929C26.8946 15.4804 27 15.7348 27 16V18H30L33 22.056V28H30.965C30.8461 28.8343 30.4302 29.5977 29.7937 30.1499C29.1571 30.7022 28.3427 31.0063 27.5 31.0063C26.6573 31.0063 25.8429 30.7022 25.2063 30.1499C24.5698 29.5977 24.1539 28.8343 24.035 28H18.965ZM25 17H13V25.05C13.3946 24.6472 13.8806 24.3457 14.4168 24.1711C14.9529 23.9966 15.5233 23.9541 16.0794 24.0474C16.6355 24.1407 17.1608 24.3669 17.6106 24.7069C18.0604 25.0469 18.4215 25.4905 18.663 26H24.337C24.505 25.647 24.73 25.326 25 25.05V17ZM27 23H31V22.715L28.992 20H27V23ZM27.5 29C27.898 29 28.2796 28.8419 28.561 28.5605C28.8424 28.2791 29.0005 27.8975 29.0005 27.4995C29.0005 27.1015 28.8424 26.7199 28.561 26.4385C28.2796 26.1571 27.898 25.999 27.5 25.999C27.102 25.999 26.7204 26.1571 26.439 26.4385C26.1576 26.7199 25.9995 27.1015 25.9995 27.4995C25.9995 27.8975 26.1576 28.2791 26.439 28.5605C26.7204 28.8419 27.102 29 27.5 29ZM17 27.5C17 27.303 16.9612 27.108 16.8858 26.926C16.8104 26.744 16.6999 26.5786 16.5607 26.4393C16.4214 26.3001 16.256 26.1896 16.074 26.1142C15.892 26.0388 15.697 26 15.5 26C15.303 26 15.108 26.0388 14.926 26.1142C14.744 26.1896 14.5786 26.3001 14.4393 26.4393C14.3001 26.5786 14.1896 26.744 14.1142 26.926C14.0388 27.108 14 27.303 14 27.5C14 27.8978 14.158 28.2794 14.4393 28.5607C14.7206 28.842 15.1022 29 15.5 29C15.8978 29 16.2794 28.842 16.5607 28.5607C16.842 28.2794 17 27.8978 17 27.5Z" fill="#161616"/>
</svg>
