<svg width="44" height="44" viewBox="0 0 44 44" fill="none" xmlns="http://www.w3.org/2000/svg">
<path d="M0.5 6.4C0.5 5.27165 0.500389 4.45545 0.552836 3.81352C0.604807 3.17744 0.705391 2.75662 0.881477 2.41103C1.21703 1.75247 1.75247 1.21703 2.41103 0.881477C2.75662 0.705391 3.17744 0.604807 3.81352 0.552836C4.45545 0.500389 5.27165 0.5 6.4 0.5H37.6C38.7284 0.5 39.5446 0.500389 40.1865 0.552836C40.8226 0.604807 41.2434 0.705391 41.589 0.881477C42.2475 1.21703 42.783 1.75247 43.1185 2.41103C43.2946 2.75662 43.3952 3.17744 43.4472 3.81352C43.4996 4.45545 43.5 5.27165 43.5 6.4V37.6C43.5 38.7284 43.4996 39.5446 43.4472 40.1865C43.3952 40.8226 43.2946 41.2434 43.1185 41.589C42.783 42.2475 42.2475 42.783 41.589 43.1185C41.2434 43.2946 40.8226 43.3952 40.1865 43.4472C39.5446 43.4996 38.7284 43.5 37.6 43.5H6.4C5.27165 43.5 4.45545 43.4996 3.81352 43.4472C3.17744 43.3952 2.75662 43.2946 2.41103 43.1185C1.75247 42.783 1.21703 42.2475 0.881477 41.589C0.705391 41.2434 0.604807 40.8226 0.552836 40.1865C0.500389 39.5446 0.5 38.7284 0.5 37.6V6.4Z" stroke="#E9E9E9"/>
<path d="M22 11L31.5 16.5V27.5L22 33L12.5 27.5V16.5L22 11ZM22 13.311L14.5 17.653V26.347L22 30.689L29.5 26.347V17.653L22 13.311ZM22 26C20.9391 26 19.9217 25.5786 19.1716 24.8284C18.4214 24.0783 18 23.0609 18 22C18 20.9391 18.4214 19.9217 19.1716 19.1716C19.9217 18.4214 20.9391 18 22 18C23.0609 18 24.0783 18.4214 24.8284 19.1716C25.5786 19.9217 26 20.9391 26 22C26 23.0609 25.5786 24.0783 24.8284 24.8284C24.0783 25.5786 23.0609 26 22 26ZM22 24C22.5304 24 23.0391 23.7893 23.4142 23.4142C23.7893 23.0391 24 22.5304 24 22C24 21.4696 23.7893 20.9609 23.4142 20.5858C23.0391 20.2107 22.5304 20 22 20C21.4696 20 20.9609 20.2107 20.5858 20.5858C20.2107 20.9609 20 21.4696 20 22C20 22.5304 20.2107 23.0391 20.5858 23.4142C20.9609 23.7893 21.4696 24 22 24Z" fill="#161616"/>
</svg>
