<?xml version="1.0" encoding="utf-8"?><svg xmlns="http://www.w3.org/2000/svg" xmlns:xlink="http://www.w3.org/1999/xlink"><symbol fill="none" viewBox="0 0 44 44" id="arr-back" xmlns="http://www.w3.org/2000/svg"><rect width="44" height="44" rx="8" fill="#fff"/><path d="M20.828 22l4.95 4.95-1.414 1.415L18 22l6.364-6.364 1.414 1.414-4.95 4.95z" fill="#161616"/></symbol><symbol fill="none" viewBox="0 0 44 44" id="arr-next" xmlns="http://www.w3.org/2000/svg"><rect width="44" height="44" rx="8" fill="#fff"/><path d="M23.172 22l-4.95-4.95 1.414-1.413L26 22l-6.364 6.364-1.414-1.414 4.95-4.95z" fill="#161616"/></symbol><symbol fill="none" viewBox="0 0 44 44" id="basket" xmlns="http://www.w3.org/2000/svg"><rect width="44" height="44" rx="8" fill="#F4F5F8"/><path d="M14 16.415l-3.243-3.242 1.415-1.415L15.414 15h15.242a1 1 0 01.958 1.287l-2.4 8a1 1 0 01-.958.713H16v2h11v2H15a1 1 0 01-1-1V16.415zM16 17v6h11.512l1.8-6H16zm-.5 16a1.5 1.5 0 110-3 1.5 1.5 0 010 3zm12 0a1.5 1.5 0 110-3 1.5 1.5 0 010 3z" fill="#161616"/></symbol><symbol fill="none" viewBox="0 0 44 44" id="delivery" xmlns="http://www.w3.org/2000/svg"><path d="M.5 6.4c0-1.128 0-1.945.053-2.586.052-.637.152-1.057.328-1.403a3.5 3.5 0 011.53-1.53c.346-.176.766-.276 1.403-.328C4.455.5 5.272.5 6.4.5h31.2c1.128 0 1.945 0 2.587.053.636.052 1.056.152 1.402.328a3.5 3.5 0 011.53 1.53c.176.346.276.766.328 1.403.053.641.053 1.458.053 2.586v31.2c0 1.128 0 1.945-.053 2.587-.052.636-.152 1.056-.329 1.402a3.5 3.5 0 01-1.529 1.53c-.346.176-.766.276-1.402.328-.642.053-1.459.053-2.587.053H6.4c-1.128 0-1.945 0-2.586-.053-.637-.052-1.057-.152-1.403-.329a3.5 3.5 0 01-1.53-1.529c-.176-.346-.276-.766-.328-1.402C.5 39.544.5 38.727.5 37.6V6.4z" stroke="#E9E9E9"/><path d="M18.965 28a3.5 3.5 0 01-6.93 0H11V16a1 1 0 011-1h14a1 1 0 011 1v2h3l3 4.056V28h-2.035a3.5 3.5 0 01-6.93 0h-5.07zM25 17H13v8.05a3.5 3.5 0 015.663.95h5.674c.168-.353.393-.674.663-.95V17zm2 6h4v-.285L28.992 20H27v3zm.5 6a1.5 1.5 0 100-3 1.5 1.5 0 000 3zM17 27.5a1.5 1.5 0 10-3 0 1.5 1.5 0 003 0z" fill="#161616"/></symbol><symbol fill="none" viewBox="0 0 44 44" id="experience" xmlns="http://www.w3.org/2000/svg"><path d="M.5 6.4c0-1.128 0-1.945.053-2.586.052-.637.152-1.057.328-1.403a3.5 3.5 0 011.53-1.53c.346-.176.766-.276 1.403-.328C4.455.5 5.272.5 6.4.5h31.2c1.128 0 1.945 0 2.587.053.636.052 1.056.152 1.402.328a3.5 3.5 0 011.53 1.53c.176.346.276.766.328 1.403.053.641.053 1.458.053 2.586v31.2c0 1.128 0 1.945-.053 2.587-.052.636-.152 1.056-.329 1.402a3.5 3.5 0 01-1.529 1.53c-.346.176-.766.276-1.402.328-.642.053-1.459.053-2.587.053H6.4c-1.128 0-1.945 0-2.586-.053-.637-.052-1.057-.152-1.403-.329a3.5 3.5 0 01-1.53-1.529c-.176-.346-.276-.766-.328-1.402C.5 39.544.5 38.727.5 37.6V6.4z" stroke="#E9E9E9"/><path d="M17 15v-3a1 1 0 011-1h8a1 1 0 011 1v3h4a1 1 0 011 1v14a1 1 0 01-1 1H13a1 1 0 01-1-1V16a1 1 0 011-1h4zm-3 11v3h16v-3H14zm0-2h16v-7H14v7zm5-11v2h6v-2h-6zm2 8h2v2h-2v-2z" fill="#161616"/></symbol><symbol fill="none" viewBox="0 0 44 44" id="feedback" xmlns="http://www.w3.org/2000/svg"><path d="M.5 6.4c0-1.128 0-1.945.053-2.586.052-.637.152-1.057.328-1.403a3.5 3.5 0 011.53-1.53c.346-.176.766-.276 1.403-.328C4.455.5 5.272.5 6.4.5h31.2c1.128 0 1.945 0 2.587.053.636.052 1.056.152 1.402.328a3.5 3.5 0 011.53 1.53c.176.346.276.766.328 1.403.053.641.053 1.458.053 2.586v31.2c0 1.128 0 1.945-.053 2.587-.052.636-.152 1.056-.329 1.402a3.5 3.5 0 01-1.529 1.53c-.346.176-.766.276-1.402.328-.642.053-1.459.053-2.587.053H6.4c-1.128 0-1.945 0-2.586-.053-.637-.052-1.057-.152-1.403-.329a3.5 3.5 0 01-1.53-1.529c-.176-.346-.276-.766-.328-1.402C.5 39.544.5 38.727.5 37.6V6.4z" stroke="#E9E9E9"/><path d="M29.938 18H31a2 2 0 012 2v4a2 2 0 01-2 2h-1.062A8 8 0 0122 33v-2a6 6 0 006-6v-6a6 6 0 10-12 0v7h-3a2 2 0 01-2-2v-4a2 2 0 012-2h1.062a8 8 0 0115.876 0zM13 20v4h1v-4h-1zm17 0v4h1v-4h-1zm-12.24 5.786l1.06-1.696A5.973 5.973 0 0022 25a5.973 5.973 0 003.18-.91l1.06 1.696A7.963 7.963 0 0122 27a7.963 7.963 0 01-4.24-1.215z" fill="#161616"/></symbol><symbol fill="none" viewBox="0 0 44 44" id="guarantee" xmlns="http://www.w3.org/2000/svg"><path d="M.5 6.4c0-1.128 0-1.945.053-2.586.052-.637.152-1.057.328-1.403a3.5 3.5 0 011.53-1.53c.346-.176.766-.276 1.403-.328C4.455.5 5.272.5 6.4.5h31.2c1.128 0 1.945 0 2.587.053.636.052 1.056.152 1.402.328a3.5 3.5 0 011.53 1.53c.176.346.276.766.328 1.403.053.641.053 1.458.053 2.586v31.2c0 1.128 0 1.945-.053 2.587-.052.636-.152 1.056-.329 1.402a3.5 3.5 0 01-1.529 1.53c-.346.176-.766.276-1.402.328-.642.053-1.459.053-2.587.053H6.4c-1.128 0-1.945 0-2.586-.053-.637-.052-1.057-.152-1.403-.329a3.5 3.5 0 01-1.53-1.529c-.176-.346-.276-.766-.328-1.402C.5 39.544.5 38.727.5 37.6V6.4z" stroke="#E9E9E9"/><path d="M27 25.246v6.872a.5.5 0 01-.757.429L22 30.001l-4.243 2.546a.5.5 0 01-.757-.43v-6.87a8 8 0 1110 0v-.001zm-8 1.173v3.05l3-1.8 3 1.8v-3.05a7.98 7.98 0 01-3 .582 7.98 7.98 0 01-3-.582zm3-1.418a6 6 0 100-12 6 6 0 000 12z" fill="#161616"/></symbol><symbol fill="none" viewBox="0 0 44 44" id="instagram" xmlns="http://www.w3.org/2000/svg"><rect x=".5" y=".5" width="43" height="43" rx="7.5" stroke="#E9E9E9"/><path d="M22 12c2.717 0 3.056.01 4.122.06 1.065.05 1.79.217 2.428.465.66.254 1.216.598 1.772 1.153.509.5.902 1.105 1.153 1.772.247.637.415 1.363.465 2.428.047 1.066.06 1.405.06 4.122 0 2.717-.01 3.056-.06 4.122-.05 1.065-.218 1.79-.465 2.428a4.883 4.883 0 01-1.153 1.772c-.5.508-1.105.902-1.772 1.153-.637.247-1.363.415-2.428.465-1.066.047-1.405.06-4.122.06-2.717 0-3.056-.01-4.122-.06-1.065-.05-1.79-.218-2.428-.465a4.89 4.89 0 01-1.772-1.153 4.903 4.903 0 01-1.153-1.772c-.248-.637-.415-1.363-.465-2.428C12.013 25.056 12 24.717 12 22c0-2.717.01-3.056.06-4.122.05-1.066.217-1.79.465-2.428a4.88 4.88 0 011.153-1.772 4.896 4.896 0 011.772-1.153c.638-.248 1.362-.415 2.428-.465C18.944 12.013 19.283 12 22 12zm0 5a5 5 0 100 10 5 5 0 000-10zm6.5-.25a1.25 1.25 0 10-2.5 0 1.25 1.25 0 002.5 0zM22 19a3 3 0 110 6 3 3 0 010-6z" fill="#161616"/></symbol><symbol fill="none" viewBox="0 0 119 28" id="logo" xmlns="http://www.w3.org/2000/svg"><path d="M23 4.998v17.998l-6-.002v3.002l6 .002c1.893 0 3-1.106 3-3V5c0-1.893-1.107-3.002-3-3.002l-6-.002v3l6 .002zM5 22.998v-18l6-.002v-3l-6 .002C3.106 1.998 2 3.107 2 5v18c0 1.894 1.106 2.998 3 2.998l6-.002v-3l-6 .002z" fill="#161616"/><path fill="#161616" d="M10 10h8v8h-8zM40 20.24c-.72 0-1.407-.107-2.06-.32a4.705 4.705 0 01-1.68-1.02c-.48-.453-.86-1.02-1.14-1.7-.28-.68-.42-1.48-.42-2.4v-.4c0-.867.14-1.627.42-2.28.28-.653.66-1.2 1.14-1.64.48-.44 1.04-.767 1.68-.98A6.24 6.24 0 0140 9.16c.72 0 1.4.113 2.04.34.64.213 1.2.54 1.68.98.493.44.88.987 1.16 1.64.28.653.42 1.413.42 2.28v.4c0 .907-.14 1.7-.42 2.38a4.7 4.7 0 01-1.16 1.7c-.48.453-1.04.793-1.68 1.02-.64.227-1.32.34-2.04.34zM40 18c.747 0 1.367-.267 1.86-.8.507-.533.76-1.333.76-2.4v-.4c0-.973-.253-1.713-.76-2.22-.493-.52-1.113-.78-1.86-.78-.76 0-1.387.26-1.88.78-.493.507-.74 1.247-.74 2.22v.4c0 1.08.247 1.887.74 2.42.493.52 1.12.78 1.88.78zm7.192-12h2.64v7.76l3.92-4.36h3.04l-4.08 4.54 4.48 6.06h-3.08l-3.08-4.32-1.2 1.26V20h-2.64V6zm15.913 14.24c-.72 0-1.406-.107-2.06-.32a4.705 4.705 0 01-1.68-1.02c-.48-.453-.86-1.02-1.14-1.7-.28-.68-.42-1.48-.42-2.4v-.4c0-.867.14-1.627.42-2.28.28-.653.66-1.2 1.14-1.64.48-.44 1.04-.767 1.68-.98a6.24 6.24 0 012.06-.34c.72 0 1.4.113 2.04.34.64.213 1.2.54 1.68.98.494.44.88.987 1.16 1.64.28.653.42 1.413.42 2.28v.4c0 .907-.14 1.7-.42 2.38a4.7 4.7 0 01-1.16 1.7c-.48.453-1.04.793-1.68 1.02-.64.227-1.32.34-2.04.34zm0-2.24c.747 0 1.367-.267 1.86-.8.507-.533.76-1.333.76-2.4v-.4c0-.973-.253-1.713-.76-2.22-.493-.52-1.113-.78-1.86-.78-.76 0-1.386.26-1.88.78-.493.507-.74 1.247-.74 2.22v.4c0 1.08.247 1.887.74 2.42.494.52 1.12.78 1.88.78zm7.193-8.6h2.46v1.56c.266-.48.686-.9 1.26-1.26.573-.36 1.3-.54 2.18-.54 1.413 0 2.513.44 3.3 1.32.8.867 1.2 2.173 1.2 3.92v.4c0 1.827-.407 3.193-1.22 4.1-.8.893-1.894 1.34-3.28 1.34-.72 0-1.36-.153-1.92-.46a4.122 4.122 0 01-1.34-1.24V24h-2.64V9.4zm5.28 8.6c.693 0 1.273-.26 1.74-.78.466-.533.7-1.34.7-2.42v-.4c0-1-.227-1.747-.68-2.24-.454-.507-1.04-.76-1.76-.76-.76 0-1.394.22-1.9.66-.494.427-.74 1.073-.74 1.94v1.2c0 .947.24 1.653.72 2.12.493.453 1.133.68 1.92.68zm7.024-8.6h2.44v1.56a2.81 2.81 0 01.4-.64c.174-.227.38-.42.62-.58.24-.173.5-.313.78-.42a2.79 2.79 0 01.96-.16c.254 0 .467.013.64.04.187.027.307.053.36.08v2.34a2.847 2.847 0 00-.52-.14c-.2-.053-.473-.08-.82-.08-.4 0-.74.067-1.02.2s-.513.313-.7.54a2.04 2.04 0 00-.38.76c-.08.293-.12.6-.12.92V20h-2.64V9.4zM95 20.24c-.72 0-1.407-.107-2.06-.32a4.705 4.705 0 01-1.68-1.02c-.48-.453-.86-1.02-1.14-1.7-.28-.68-.42-1.48-.42-2.4v-.4c0-.867.14-1.627.42-2.28.28-.653.66-1.2 1.14-1.64.48-.44 1.04-.767 1.68-.98A6.24 6.24 0 0195 9.16c.72 0 1.4.113 2.04.34.64.213 1.2.54 1.68.98.493.44.88.987 1.16 1.64.28.653.42 1.413.42 2.28v.4c0 .907-.14 1.7-.42 2.38a4.7 4.7 0 01-1.16 1.7c-.48.453-1.04.793-1.68 1.02-.64.227-1.32.34-2.04.34zM95 18c.747 0 1.367-.267 1.86-.8.507-.533.76-1.333.76-2.4v-.4c0-.973-.253-1.713-.76-2.22-.493-.52-1.113-.78-1.86-.78-.76 0-1.387.26-1.88.78-.493.507-.74 1.247-.74 2.22v.4c0 1.08.247 1.887.74 2.42.493.52 1.12.78 1.88.78zm7.192-8.6h2.44v1.58c.12-.24.274-.467.46-.68.2-.213.427-.407.68-.58.267-.173.554-.307.86-.4.32-.107.66-.16 1.02-.16.854 0 1.52.173 2 .52.494.347.84.807 1.04 1.38a3.536 3.536 0 011.26-1.36c.56-.36 1.22-.54 1.98-.54 1.134 0 1.994.327 2.58.98.587.64.88 1.627.88 2.96V20h-2.64v-6.3c0-.84-.14-1.433-.42-1.78-.266-.347-.7-.52-1.3-.52-.533 0-.986.207-1.36.62-.373.4-.56.96-.56 1.68V20h-2.64v-6.3c0-.84-.14-1.433-.42-1.78-.266-.347-.7-.52-1.3-.52-.533 0-.986.207-1.36.62-.373.4-.56.96-.56 1.68V20h-2.64V9.4z"/></symbol><symbol fill="none" viewBox="0 0 44 44" id="menu" xmlns="http://www.w3.org/2000/svg"><rect width="44" height="44" rx="8" fill="#F4F5F8"/><path d="M13 14h18v2H13v-2zm0 7h18v2H13v-2zm0 7h18v2H13v-2z" fill="#161616"/></symbol><symbol fill="none" viewBox="0 0 44 44" id="rent" xmlns="http://www.w3.org/2000/svg"><path d="M.5 6.4c0-1.128 0-1.945.053-2.586.052-.637.152-1.057.328-1.403a3.5 3.5 0 011.53-1.53c.346-.176.766-.276 1.403-.328C4.455.5 5.272.5 6.4.5h31.2c1.128 0 1.945 0 2.587.053.636.052 1.056.152 1.402.328a3.5 3.5 0 011.53 1.53c.176.346.276.766.328 1.403.053.641.053 1.458.053 2.586v31.2c0 1.128 0 1.945-.053 2.587-.052.636-.152 1.056-.329 1.402a3.5 3.5 0 01-1.529 1.53c-.346.176-.766.276-1.402.328-.642.053-1.459.053-2.587.053H6.4c-1.128 0-1.945 0-2.586-.053-.637-.052-1.057-.152-1.403-.329a3.5 3.5 0 01-1.53-1.529c-.176-.346-.276-.766-.328-1.402C.5 39.544.5 38.727.5 37.6V6.4z" stroke="#E9E9E9"/><path d="M22 32c-5.523 0-10-4.477-10-10s4.477-10 10-10 10 4.477 10 10-4.477 10-10 10zm0-2a8 8 0 100-16.001A8 8 0 0022 30zm-5-11l3-3.5 3 3.5h-2v4h-2v-4h-2zm10 6l-3 3.5-3-3.5h2v-4h2v4h2z" fill="#161616"/></symbol><symbol fill="none" viewBox="0 0 44 44" id="search" xmlns="http://www.w3.org/2000/svg"><rect width="44" height="44" rx="8" fill="#F4F5F8"/><path d="M28.031 26.617l4.283 4.282-1.415 1.415-4.282-4.283A8.96 8.96 0 0121 30c-4.968 0-9-4.032-9-9s4.032-9 9-9 9 4.032 9 9a8.96 8.96 0 01-1.969 5.617zm-2.006-.742A6.977 6.977 0 0028 21c0-3.868-3.133-7-7-7-3.868 0-7 3.132-7 7 0 3.867 3.132 7 7 7a6.977 6.977 0 004.875-1.975l.15-.15z" fill="#161616"/></symbol><symbol fill="none" viewBox="0 0 44 44" id="spare" xmlns="http://www.w3.org/2000/svg"><path d="M.5 6.4c0-1.128 0-1.945.053-2.586.052-.637.152-1.057.328-1.403a3.5 3.5 0 011.53-1.53c.346-.176.766-.276 1.403-.328C4.455.5 5.272.5 6.4.5h31.2c1.128 0 1.945 0 2.587.053.636.052 1.056.152 1.402.328a3.5 3.5 0 011.53 1.53c.176.346.276.766.328 1.403.053.641.053 1.458.053 2.586v31.2c0 1.128 0 1.945-.053 2.587-.052.636-.152 1.056-.329 1.402a3.5 3.5 0 01-1.529 1.53c-.346.176-.766.276-1.402.328-.642.053-1.459.053-2.587.053H6.4c-1.128 0-1.945 0-2.586-.053-.637-.052-1.057-.152-1.403-.329a3.5 3.5 0 01-1.53-1.529c-.176-.346-.276-.766-.328-1.402C.5 39.544.5 38.727.5 37.6V6.4z" stroke="#E9E9E9"/><path d="M22 11l9.5 5.5v11L22 33l-9.5-5.5v-11L22 11zm0 2.311l-7.5 4.342v8.694l7.5 4.342 7.5-4.342v-8.694L22 13.311zM22 26a4 4 0 110-8 4 4 0 010 8zm0-2a2 2 0 100-4 2 2 0 000 4z" fill="#161616"/></symbol><symbol fill="none" viewBox="0 0 44 44" id="youtube" xmlns="http://www.w3.org/2000/svg"><rect x=".5" y=".5" width="43" height="43" rx="7.5" stroke="#E9E9E9"/><path d="M31.543 16.498C32 18.28 32 22 32 22s0 3.72-.457 5.502c-.254.985-.997 1.76-1.938 2.022C27.896 30 22 30 22 30s-5.893 0-7.605-.476c-.945-.266-1.687-1.04-1.938-2.022C12 25.72 12 22 12 22s0-3.72.457-5.502c.254-.985.997-1.76 1.938-2.022C16.107 14 22 14 22 14s5.896 0 7.605.476c.945.266 1.687 1.04 1.938 2.022zM20 25.5l6-3.5-6-3.5v7z" fill="#161616"/></symbol></svg>