<svg width="46" height="56" viewBox="0 0 46 56" fill="none" xmlns="http://www.w3.org/2000/svg">
<g clip-path="url(#clip0_113_7651)">
<path d="M28.2287 25.1939C28.0188 25.3661 27.9887 25.6763 28.1616 25.8853C28.3345 26.0944 28.646 26.1243 28.8559 25.9521C29.0658 25.7799 29.0959 25.4697 28.923 25.2607C28.7501 25.0517 28.4386 25.0217 28.2287 25.1939ZM28.7681 25.3878C28.8706 25.5118 28.8528 25.6957 28.7283 25.7979C28.6038 25.9 28.4191 25.8822 28.3165 25.7582C28.214 25.6343 28.2318 25.4503 28.3563 25.3482C28.4808 25.246 28.6655 25.2638 28.7681 25.3878Z" fill="#161616"/>
<path d="M32.9179 15.3246L33.3276 14.7165L34.2003 15.2997L34.2694 15.2672L35.4624 16.1043L35.6261 15.8631L36.1078 16.1849L36.8165 15.1326L36.3388 14.8134L36.4162 14.6995L35.2826 13.9137L35.2895 13.6804L34.4179 13.0981L34.7006 12.6786L33.4219 11.8243L33.061 12.3604L30.3687 10.7246L24.1046 18.4967L17.8405 10.7246L15.1483 12.3604L14.7872 11.8243L13.5087 12.6786L13.7912 13.0981L12.9198 13.6804L12.9267 13.9137L11.7931 14.6995L11.8704 14.8134L11.3926 15.1326L12.1015 16.1849L12.5831 15.8631L12.7469 16.1043L13.9398 15.2672L14.0088 15.2997L14.8815 14.7165L15.2912 15.3246L16.5697 14.4703L16.2462 13.99L17.3918 13.2616L22.8701 20.0284L21.8786 21.2585L21.5864 21.0188L21.2202 20.7183C21.2843 20.568 21.2451 20.3874 21.1123 20.2784L20.9021 20.1059C20.7404 19.9733 20.5005 19.9964 20.3673 20.1574L19.5379 21.1602C19.4047 21.3212 19.4279 21.5601 19.5896 21.6927L19.7998 21.8652C19.9285 21.9708 20.1067 21.9774 20.2413 21.8944L20.6111 22.1978L20.8989 22.434L20.4255 23.0074L20.1372 22.7709L19.771 22.4704C19.835 22.3201 19.7959 22.1395 19.6631 22.0305L19.4528 21.858C19.2912 21.7254 19.0513 21.7485 18.9181 21.9095L18.0887 22.9122C17.9555 23.0732 17.9787 23.3122 18.1404 23.4448L18.3506 23.6172C18.4794 23.7229 18.6575 23.7294 18.7921 23.6465L19.1619 23.9499L19.4512 24.1873L19.4325 24.21C19.1147 24.2639 18.8142 24.4268 18.5936 24.6935C18.5175 24.7855 18.4554 24.8845 18.4069 24.9878C15.9941 27.1515 14.1284 30.4882 13.8992 30.9073L12.9506 31.0701L12.2036 32.0923L12.449 32.2905L12.3182 32.4487L12.1549 32.3145L11.69 32.8764L11.8534 33.0106L11.4431 33.5066C11.3653 33.6005 11.3789 33.7401 11.4733 33.8178L11.8882 34.1582C11.9827 34.2358 12.1229 34.2221 12.2007 34.1282L12.611 33.6322L12.7743 33.7661L13.2392 33.2042L13.0758 33.0703L13.2115 32.9061L13.3285 33.0003L14.0781 31.9772L14.4454 31.8867L14.4267 32.2631L13.5617 33.1919L13.759 33.3564L13.6238 33.5197L13.4605 33.3858L12.9957 33.9477L13.159 34.0816L12.7487 34.5776C12.6709 34.6718 12.6845 34.8115 12.7789 34.8888L13.1938 35.2295C13.2883 35.3069 13.4285 35.2934 13.5064 35.1992L13.9166 34.7032L14.08 34.8372L14.5448 34.2752L14.3814 34.1413L14.5117 33.9837L14.6722 34.1176L15.5365 33.1916L15.5153 32.2331C15.8831 31.9287 18.808 29.4634 20.481 26.7012L20.4775 26.6991C20.5732 26.6307 20.6617 26.5492 20.7401 26.4545C20.886 26.2781 20.9802 26.0761 21.0253 25.8667C21.447 25.626 21.4685 24.9795 21.4667 24.8116L24.1046 21.5533L26.7424 24.8116C26.7406 24.9795 26.7622 25.626 27.1838 25.8667C27.2289 26.0761 27.3232 26.2781 27.4691 26.4545C27.5474 26.5492 27.6359 26.6307 27.7316 26.6991L27.7281 26.7012C29.4012 29.4634 32.3262 31.9287 32.694 32.2331L32.6728 33.1916L33.5369 34.1176L33.6975 33.9837L33.8276 34.1413L33.6645 34.2752L34.1292 34.8372L34.2927 34.7032L34.7029 35.1992C34.7806 35.2934 34.9208 35.3069 35.0154 35.2295L35.4303 34.8888C35.5246 34.8115 35.5384 34.6718 35.4604 34.5776L35.0501 34.0816L35.2135 33.9477L34.7488 33.3858L34.5854 33.5197L34.4501 33.3564L34.6473 33.1919L33.7826 32.2631L33.7637 31.8867L34.131 31.9772L34.8807 33.0003L34.9977 32.9061L35.1333 33.0703L34.9698 33.2042L35.4349 33.7661L35.598 33.6322L36.0083 34.1282C36.0863 34.2221 36.2264 34.2358 36.3208 34.1582L36.7359 33.8178C36.8302 33.7401 36.8437 33.6008 36.766 33.5066L36.3558 33.0106L36.5192 32.8764L36.0541 32.3145L35.891 32.4487L35.76 32.2905L36.0057 32.0923L35.2585 31.0701L34.3099 30.9073C34.0808 30.4882 32.2152 27.1515 29.8023 24.9878C29.7538 24.8844 29.6916 24.7855 29.6155 24.6935C29.395 24.4268 29.0944 24.2639 28.7766 24.21L28.7579 24.1873L29.0472 23.9499L29.417 23.6465C29.5516 23.7294 29.7298 23.7229 29.8586 23.6172L30.0688 23.4448C30.2304 23.3122 30.2536 23.0732 30.1204 22.9122L29.291 21.9095C29.1578 21.7484 28.918 21.7253 28.7563 21.858L28.546 22.0305C28.4132 22.1395 28.3741 22.3201 28.4382 22.4704L28.072 22.7709L27.7837 23.0074L27.3102 22.434L27.598 22.1978L27.9678 21.8944C28.1024 21.9773 28.2806 21.9708 28.4093 21.8652L28.6196 21.6927C28.7813 21.5601 28.8044 21.3211 28.6713 21.1602L27.8418 20.1574C27.7087 19.9964 27.4688 19.9733 27.3071 20.1059L27.0969 20.2784C26.964 20.3874 26.9249 20.568 26.989 20.7183L26.6228 21.0188L26.3305 21.2585L25.3391 20.0284L30.8173 13.2616L31.9629 13.99L31.6394 14.4703L32.9179 15.3246ZM36.5381 15.1873L36.053 15.9076L35.7419 15.6998L36.227 14.9795L36.5381 15.1873ZM35.2755 14.1523L36.139 14.7509L35.8821 15.1291L35.2594 14.6874L35.2755 14.1523ZM35.7697 15.2948L35.4108 15.8236L34.4779 15.1689L35.1473 14.8533L35.7697 15.2948ZM35.0857 13.7848L35.059 14.6737L34.2175 15.0705L33.442 14.5523L34.3087 13.2657L35.0857 13.7848ZM12.9338 14.1523L12.9497 14.6875L12.327 15.1292L12.0702 14.751L12.9338 14.1523ZM12.1563 15.9076L11.6711 15.1873L11.9821 14.9795L12.4673 15.6998L12.1563 15.9076ZM12.7985 15.8236L12.4395 15.2948L13.0619 14.8533L13.7314 15.1689L12.7985 15.8236ZM13.9916 15.0705L13.1501 14.6738L13.1237 13.7848L13.9004 13.2658L14.7671 14.5523L13.9916 15.0705ZM16.2912 14.4157L15.346 15.0473L13.7871 12.7333L14.7323 12.1017L16.2912 14.4157ZM20.1796 21.6866C20.1168 21.7626 20.0037 21.7735 19.9274 21.7109L19.7172 21.5384C19.6409 21.4759 19.63 21.3632 19.6928 21.2872L20.5222 20.2844C20.585 20.2085 20.6982 20.1976 20.7744 20.2602L20.9847 20.4326C21.0609 20.4952 21.0719 20.6079 21.0091 20.6839L20.1796 21.6866ZM20.5838 21.9165L20.3846 21.7531L21.1047 20.8826L21.3039 21.0459L20.5838 21.9165ZM20.7387 22.0436L21.4588 21.173L21.7516 21.4132L21.0268 22.2791L21.0264 22.2796L20.7387 22.0436ZM18.7304 23.4387C18.6676 23.5147 18.5545 23.5256 18.4782 23.463L18.268 23.2905C18.1917 23.2279 18.1808 23.1152 18.2436 23.0393L19.0731 22.0365C19.1359 21.9606 19.249 21.9497 19.3253 22.0123L19.5355 22.1847C19.6118 22.2473 19.6227 22.36 19.5599 22.4359L18.7304 23.4387ZM19.1346 23.6686L18.9355 23.5052L19.6555 22.6347L19.8547 22.798L19.1346 23.6686ZM19.2895 23.7957L20.0096 22.9251L20.298 23.1618L19.5787 24.0329L19.2895 23.7957ZM12.0459 34.0011C12.0384 34.01 12.0249 34.0114 12.0159 34.004L11.6009 33.6636C11.5919 33.6562 11.5906 33.6428 11.598 33.6336L12.0083 33.1377L12.4561 33.5051L12.0459 34.0011ZM12.7471 33.4846L11.9726 32.8493L12.1822 32.596L12.9567 33.2313L12.7471 33.4846ZM12.921 32.9429L12.4732 32.5757L12.605 32.4164L13.0557 32.7802L12.921 32.9429ZM13.3515 35.0722C13.344 35.0813 13.3305 35.0824 13.3215 35.075L12.9065 34.7347C12.8975 34.7272 12.8962 34.7138 12.9036 34.7047L13.3139 34.2087L13.7617 34.5762L13.3515 35.0722ZM14.0527 34.5559L13.2782 33.9203L13.4878 33.667L14.2623 34.3023L14.0527 34.5559ZM14.2266 34.0142L13.7787 33.6468L13.9129 33.4846L14.3579 33.8555L14.2266 34.0142ZM15.3506 32.1092L15.3125 32.14L15.3341 33.1148L14.655 33.8424L13.8525 33.1736L14.6235 32.3456L14.6593 31.628L13.9591 31.8005L13.2908 32.7128L12.478 32.0563L13.0649 31.2534L14.0299 31.0878L14.0529 31.0444C14.0716 31.0096 15.878 27.6453 18.2928 25.3651C18.2222 25.8312 18.3916 26.322 18.7828 26.6429C19.1736 26.9636 19.6893 27.0354 20.1349 26.8775C18.3483 29.6673 15.3814 32.0843 15.3506 32.1092ZM20.5852 26.3274C20.1681 26.8317 19.4167 26.904 18.9103 26.4886C18.404 26.0732 18.3314 25.3249 18.7485 24.8205C19.1656 24.3162 19.917 24.2439 20.4234 24.6594C20.9297 25.0748 21.0023 25.8231 20.5852 26.3274ZM21.2634 24.7444L21.2653 24.7824C21.2656 24.7885 21.287 25.3041 21.0566 25.5814C21.0584 25.1795 20.886 24.78 20.551 24.5051C20.3054 24.3036 20.0106 24.2007 19.7149 24.1908L20.5853 23.1385L20.5804 23.1345L21.0538 22.5611L21.0592 22.5655L22.0345 21.3864L22.0335 21.3856L22.999 20.1877L23.9757 21.3941L21.2634 24.7444ZM35.3056 34.7047C35.313 34.7138 35.3116 34.7272 35.3027 34.7347L34.8878 35.075C34.8787 35.0824 34.8652 35.0813 34.8577 35.0722L34.4475 34.5762L34.8953 34.2087L35.3056 34.7047ZM34.7213 33.667L34.9311 33.9203L34.1565 34.5559L33.9469 34.3023L34.7213 33.667ZM33.9827 34.0142L33.8514 33.8555L34.2964 33.4846L34.4306 33.6468L33.9827 34.0142ZM36.6112 33.6336C36.6187 33.6428 36.6172 33.6562 36.6083 33.6636L36.1935 34.004C36.1843 34.0114 36.1708 34.01 36.1634 34.0011L35.7531 33.5051L36.2009 33.1377L36.6112 33.6336ZM36.0269 32.5957L36.2368 32.8493L35.4621 33.4846L35.2525 33.2313L36.0269 32.5957ZM35.2884 32.9429L35.1536 32.7802L35.6043 32.4164L35.7359 32.5757L35.2884 32.9429ZM29.9165 25.3651C32.3313 27.6453 34.1375 31.0096 34.1562 31.0444L34.1794 31.0878L35.1444 31.2534L35.7313 32.0563L34.9185 32.7128L34.2502 31.8005L33.5498 31.628L33.5856 32.3456L34.3569 33.1736L33.5544 33.8424L32.8752 33.1148L32.8967 32.14L32.8586 32.1092C32.8279 32.0843 29.8609 29.6673 28.0743 26.8775C28.52 27.0354 29.0356 26.9636 29.4265 26.6429C29.8176 26.322 29.9871 25.8312 29.9165 25.3651ZM29.4607 24.8205C29.8778 25.3249 29.8052 26.0731 29.2989 26.4886C28.7925 26.904 28.0411 26.8317 27.624 26.3274C27.2069 25.8231 27.2795 25.0748 27.7859 24.6594C28.2923 24.2439 29.0436 24.3162 29.4607 24.8205ZM28.6737 22.1847L28.884 22.0123C28.9602 21.9497 29.0734 21.9606 29.1362 22.0366L29.9656 23.0393C30.0285 23.1153 30.0175 23.228 29.9413 23.2905L29.731 23.463C29.6548 23.5256 29.5416 23.5147 29.4788 23.4387L28.6494 22.436C28.5866 22.36 28.5975 22.2473 28.6737 22.1847ZM28.5537 22.6347L29.2738 23.5052L29.0746 23.6686L28.3546 22.798L28.5537 22.6347ZM28.1997 22.9251L28.9197 23.7957L28.6305 24.0329L27.9112 23.1618L28.1997 22.9251ZM27.2246 20.4326L27.4348 20.2602C27.5111 20.1976 27.6242 20.2085 27.687 20.2844L28.5164 21.2872C28.5793 21.3632 28.5683 21.4759 28.4921 21.5384L28.2818 21.7109C28.2056 21.7735 28.0924 21.7626 28.0296 21.6866L27.2002 20.6839C27.1374 20.6079 27.1483 20.4952 27.2246 20.4326ZM27.1045 20.8826L27.8246 21.7531L27.6254 21.9165L26.9054 21.0459L27.1045 20.8826ZM26.7505 21.173L27.4705 22.0436L27.1828 22.2796L27.1825 22.2791L26.4577 21.4132L26.7505 21.173ZM26.1757 21.3856L26.1748 21.3864L27.15 22.5655L27.1554 22.5611L27.6289 23.1345L27.624 23.1385L28.4944 24.1908C28.1986 24.2007 27.9038 24.3036 27.6583 24.5051C27.3232 24.78 27.1508 25.1795 27.1527 25.5814C26.9222 25.3041 26.9436 24.7885 26.944 24.7824L26.9459 24.7444L24.2336 21.3941L24.1047 21.2349L23.1277 20.0281L22.9987 19.8688L17.4352 12.9968L16.1398 13.8205L15.2646 12.5239L17.7944 10.9867L23.976 18.6562L24.1046 18.8159L25.0816 20.028L25.2102 20.1876L26.1757 21.3856ZM30.774 12.9968L25.2105 19.8688L24.2333 18.6563L30.4148 10.9868L32.9446 12.5239L32.0696 13.8205L30.774 12.9968ZM33.477 12.1017L34.4222 12.7333L32.8632 15.0473L31.9179 14.4157L33.477 12.1017Z" fill="#161616"/>
<path d="M33.2399 31.3318C33.4383 31.1691 33.4667 30.8761 33.3033 30.6785C33.1398 30.4812 32.8457 30.4527 32.6476 30.6154C32.4492 30.7782 32.4208 31.0711 32.5842 31.2687C32.7473 31.466 33.0415 31.4943 33.2399 31.3318ZM32.7751 30.7696C32.8878 30.6771 33.0553 30.6934 33.1484 30.8056C33.2413 30.9181 33.2253 31.0848 33.1123 31.1774C32.9993 31.2702 32.8319 31.2539 32.739 31.1417C32.6461 31.0292 32.6622 30.8624 32.7751 30.7696Z" fill="#161616"/>
<path d="M29.5625 27.4587C29.7083 27.635 29.971 27.6602 30.148 27.515C30.325 27.3698 30.3503 27.1082 30.2045 26.9319C30.0587 26.7556 29.7961 26.7304 29.6191 26.8756C29.4421 27.0208 29.4167 27.2824 29.5625 27.4587ZM29.7467 27.0299C29.8383 26.9547 29.9742 26.9678 30.0497 27.059C30.1251 27.1502 30.112 27.2856 30.0204 27.3607C29.9288 27.4359 29.7929 27.4228 29.7174 27.3316C29.6419 27.2404 29.6551 27.105 29.7467 27.0299Z" fill="#161616"/>
<path d="M19.9814 25.1939C19.7715 25.0217 19.46 25.0517 19.2871 25.2607C19.1142 25.4697 19.1443 25.7799 19.3542 25.9521C19.5641 26.1243 19.8756 26.0944 20.0485 25.8853C20.2214 25.6763 20.1913 25.3661 19.9814 25.1939ZM19.8936 25.7582C19.791 25.8822 19.6063 25.9 19.4818 25.7979C19.3573 25.6957 19.3395 25.5118 19.4421 25.3878C19.5446 25.2638 19.7293 25.246 19.8538 25.3481C19.9783 25.4503 19.9961 25.6343 19.8936 25.7582Z" fill="#161616"/>
<path d="M15.5627 30.6154C15.3644 30.4527 15.0702 30.4812 14.9069 30.6785C14.7435 30.8761 14.772 31.1691 14.9703 31.3318C15.1686 31.4943 15.4628 31.466 15.6261 31.2684C15.7894 31.0711 15.761 30.7782 15.5627 30.6154ZM15.4712 31.1414C15.3782 31.2539 15.2107 31.2702 15.0979 31.1774C14.985 31.0848 14.9688 30.9181 15.0618 30.8056C15.1548 30.6934 15.3222 30.6771 15.4351 30.7696C15.5479 30.8624 15.5641 31.0292 15.4712 31.1414Z" fill="#161616"/>
<path d="M18.5908 26.8756C18.4138 26.7304 18.1512 26.7556 18.0054 26.9319C17.8595 27.1082 17.8849 27.3698 18.0619 27.515C18.2389 27.6602 18.5016 27.635 18.6474 27.4587C18.7932 27.2824 18.7678 27.0208 18.5908 26.8756ZM18.4925 27.3316C18.417 27.4228 18.2811 27.4359 18.1895 27.3607C18.0979 27.2856 18.0848 27.1502 18.1603 27.059C18.2357 26.9678 18.3716 26.9547 18.4632 27.0299C18.5548 27.105 18.568 27.2404 18.4925 27.3316Z" fill="#161616"/>
<path d="M19.921 6.22312C20.375 5.94336 20.6172 5.48935 20.5588 5.01102C20.5097 4.61005 20.3151 4.30238 19.998 4.12258C19.6374 3.89772 19.1793 3.83345 18.5127 3.91434C18.0764 3.96722 17.6148 4.06473 17.3081 4.16889L17.2646 4.18369L17.8883 9.28629L17.9376 9.28709C17.9588 9.28743 17.9829 9.28766 18.0101 9.28766C18.199 9.28766 18.5298 9.27718 18.9768 9.22299C19.8292 9.11962 20.4001 8.88754 20.7231 8.51229C20.9861 8.18789 21.0937 7.81293 21.043 7.39782C20.9558 6.68458 20.4119 6.32871 19.921 6.22312ZM18.1026 4.62718C18.2329 4.58752 18.4087 4.55414 18.6262 4.52776C19.3339 4.4419 19.7244 4.65922 19.7873 5.17352C19.8153 5.40249 19.7455 5.61005 19.5856 5.77375C19.4161 5.94721 19.156 6.05948 18.8335 6.0986L18.2905 6.16444L18.1026 4.62718ZM19.9462 8.25913C19.7492 8.42137 19.4531 8.53039 19.0898 8.57436C18.8656 8.60152 18.7048 8.61431 18.5896 8.61245L18.365 6.77492L18.855 6.7155C19.2349 6.66941 20.1297 6.65254 20.2318 7.48844C20.2713 7.81127 20.1752 8.07059 19.9462 8.25913Z" fill="#161616"/>
<path d="M23.7295 8.89534L24.5151 8.896L24.519 4.33012L26.093 4.33143L26.0935 3.65557L22.1676 3.65234L22.167 4.32815L23.7334 4.32946L23.7295 8.89534Z" fill="#161616"/>
<path d="M27.8623 6.66462C28.0016 6.02759 28.1403 5.35115 28.2477 4.78582C28.2972 5.2613 28.3763 5.8069 28.4958 6.50098L28.9467 9.08225L29.5241 9.17222L30.8276 6.81906C31.1399 6.25724 31.4075 5.74676 31.6407 5.26749C31.5545 5.85769 31.4811 6.57233 31.4203 7.16439L31.1939 9.46309L31.9479 9.58051L32.437 4.35121L31.5074 4.20653L30.1972 6.55149C29.8722 7.15217 29.6405 7.61325 29.461 8.01823C29.4173 7.56974 29.3447 7.06157 29.2307 6.40098L28.74 3.77557L27.8104 3.63086L26.6348 8.75311L27.3739 8.86821L27.8623 6.66462Z" fill="#161616"/>
<path d="M24.3553 0.806641H23.875V1.75362H24.3553V0.806641Z" fill="#161616"/>
<path d="M23.6421 0.810547L23.1621 0.827239L23.1953 1.77365L23.6753 1.75696L23.6421 0.810547Z" fill="#161616"/>
<path d="M22.9298 0.837891L22.4507 0.871278L22.5171 1.81598L22.9962 1.7826L22.9298 0.837891Z" fill="#161616"/>
<path d="M22.2164 0.894531L21.7388 0.944517L21.8381 1.88629L22.3158 1.8363L22.2164 0.894531Z" fill="#161616"/>
<path d="M21.5079 0.970703L21.0322 1.03729L21.1646 1.97508L21.6402 1.9085L21.5079 0.970703Z" fill="#161616"/>
<path d="M20.8011 1.07422L20.3281 1.15726L20.4932 2.08984L20.9662 2.0068L20.8011 1.07422Z" fill="#161616"/>
<path d="M20.0977 1.20117L19.6279 1.30062L19.8256 2.22686L20.2954 2.12741L20.0977 1.20117Z" fill="#161616"/>
<path d="M19.4016 1.35547L18.9355 1.47118L19.1656 2.39003L19.6316 2.27432L19.4016 1.35547Z" fill="#161616"/>
<path d="M18.7107 1.52734L18.249 1.65917L18.5111 2.5695L18.9728 2.43767L18.7107 1.52734Z" fill="#161616"/>
<path d="M18.0256 1.73047L17.5688 1.87827L17.8626 2.77894L18.3194 2.63114L18.0256 1.73047Z" fill="#161616"/>
<path d="M17.3473 1.95117L16.896 2.11476L17.2212 3.00464L17.6725 2.84105L17.3473 1.95117Z" fill="#161616"/>
<path d="M16.6777 2.20117L16.2324 2.38035L16.5886 3.25839L17.0339 3.07921L16.6777 2.20117Z" fill="#161616"/>
<path d="M16.0174 2.4707L15.5786 2.66524L15.9653 3.53029L16.4041 3.33576L16.0174 2.4707Z" fill="#161616"/>
<path d="M15.3677 2.76172L14.936 2.97142L15.3529 3.82257L15.7846 3.61287L15.3677 2.76172Z" fill="#161616"/>
<path d="M14.7273 3.07812L14.3032 3.3027L14.7496 4.13877L15.1737 3.9142L14.7273 3.07812Z" fill="#161616"/>
<path d="M14.0985 3.41602L13.6826 3.65518L14.1581 4.47527L14.574 4.2361L14.0985 3.41602Z" fill="#161616"/>
<path d="M13.482 3.77344L13.0747 4.02691L13.5786 4.82995L13.9858 4.57648L13.482 3.77344Z" fill="#161616"/>
<path d="M12.8796 4.1543L12.4814 4.42179L13.0132 5.20681L13.4113 4.93935L12.8796 4.1543Z" fill="#161616"/>
<path d="M12.2904 4.55469L11.9019 4.83585L12.4607 5.60195L12.8493 5.32078L12.2904 4.55469Z" fill="#161616"/>
<path d="M11.7149 4.97656L11.3364 5.27109L11.9219 6.01731L12.3003 5.72281L11.7149 4.97656Z" fill="#161616"/>
<path d="M11.155 5.41797L10.7871 5.72543L11.3983 6.45084L11.7662 6.14334L11.155 5.41797Z" fill="#161616"/>
<path d="M10.6103 5.87695L10.2534 6.19698L10.8896 6.90068L11.2465 6.58063L10.6103 5.87695Z" fill="#161616"/>
<path d="M10.0828 6.35547L9.7373 6.68777L10.3979 7.36892L10.7433 7.03664L10.0828 6.35547Z" fill="#161616"/>
<path d="M9.57341 6.85352L9.23975 7.19759L9.9237 7.85543L10.2573 7.51139L9.57341 6.85352Z" fill="#161616"/>
<path d="M9.07918 7.36719L8.75781 7.72262L9.46439 8.35625L9.78575 8.00079L9.07918 7.36719Z" fill="#161616"/>
<path d="M8.60511 7.89844L8.29639 8.26484L9.02475 8.87354L9.33347 8.50714L8.60511 7.89844Z" fill="#161616"/>
<path d="M8.14922 8.44727L7.85352 8.8242L8.60278 9.40724L8.89848 9.03033L8.14922 8.44727Z" fill="#161616"/>
<path d="M7.71249 9.00781L7.43018 9.39477L8.1994 9.95142L8.48171 9.56444L7.71249 9.00781Z" fill="#161616"/>
<path d="M7.29641 9.58594L7.02783 9.98246L7.81609 10.512L8.08467 10.1155L7.29641 9.58594Z" fill="#161616"/>
<path d="M6.90047 10.1777L6.646 10.5834L7.45229 11.0852L7.70679 10.6796L6.90047 10.1777Z" fill="#161616"/>
<path d="M6.52627 10.7832L6.28613 11.1974L7.10954 11.6709L7.34968 11.2567L6.52627 10.7832Z" fill="#161616"/>
<path d="M6.17227 11.4004L5.94678 11.8227L6.78627 12.2673L7.01176 11.845L6.17227 11.4004Z" fill="#161616"/>
<path d="M5.8419 12.0293L5.63135 12.4592L6.48597 12.8744L6.69652 12.4445L5.8419 12.0293Z" fill="#161616"/>
<path d="M5.53127 12.6699L5.33594 13.1069L6.20453 13.492L6.39986 13.0551L5.53127 12.6699Z" fill="#161616"/>
<path d="M5.24583 13.3203L5.06592 13.7638L5.94753 14.1186L6.12746 13.675L5.24583 13.3203Z" fill="#161616"/>
<path d="M4.98213 13.9805L4.81787 14.43L5.71138 14.7538L5.87563 14.3043L4.98213 13.9805Z" fill="#161616"/>
<path d="M4.74216 14.6523L4.59375 15.1073L5.4981 15.3999L5.6465 14.945L4.74216 14.6523Z" fill="#161616"/>
<path d="M4.52543 15.3281L4.39307 15.788L5.30711 16.0489L5.43948 15.5891L4.52543 15.3281Z" fill="#161616"/>
<path d="M4.332 16.0137L4.21582 16.4778L5.13842 16.7069L5.2546 16.2427L4.332 16.0137Z" fill="#161616"/>
<path d="M4.16284 16.7051L4.06299 17.1729L4.99301 17.3698L5.09286 16.902L4.16284 16.7051Z" fill="#161616"/>
<path d="M4.01892 17.4004L3.93555 17.8715L4.87194 18.0358L4.95531 17.5648L4.01892 17.4004Z" fill="#161616"/>
<path d="M3.90035 18.0996L3.8335 18.5733L4.77512 18.7051L4.84197 18.2314L3.90035 18.0996Z" fill="#161616"/>
<path d="M3.80361 18.8047L3.75342 19.2804L4.69903 19.3793L4.74922 18.9037L3.80361 18.8047Z" fill="#161616"/>
<path d="M3.73421 19.5137L3.70068 19.9909L4.64925 20.057L4.68277 19.5798L3.73421 19.5137Z" fill="#161616"/>
<path d="M3.68717 20.2227L3.67041 20.7007L4.62068 20.7337L4.63744 20.2557L3.68717 20.2227Z" fill="#161616"/>
<path d="M4.61784 20.9336H3.66699V21.4119H4.61784V20.9336Z" fill="#161616"/>
<path d="M4.62068 21.6113L3.67041 21.6444L3.68717 22.1224L4.63744 22.0894L4.62068 21.6113Z" fill="#161616"/>
<path d="M4.64925 22.2891L3.70068 22.3552L3.73421 22.8324L4.68277 22.7662L4.64925 22.2891Z" fill="#161616"/>
<path d="M4.69854 22.9648L3.75293 23.0638L3.80312 23.5395L4.74873 23.4406L4.69854 22.9648Z" fill="#161616"/>
<path d="M4.77512 23.6387L3.8335 23.7705L3.90035 24.2442L4.84197 24.1123L4.77512 23.6387Z" fill="#161616"/>
<path d="M4.8734 24.3105L3.93701 24.475L4.02044 24.9461L4.95683 24.7816L4.8734 24.3105Z" fill="#161616"/>
<path d="M4.99301 24.9746L4.06299 25.1715L4.16284 25.6393L5.09286 25.4425L4.99301 24.9746Z" fill="#161616"/>
<path d="M5.13842 25.6387L4.21582 25.8678L4.332 26.3319L5.2546 26.1028L5.13842 25.6387Z" fill="#161616"/>
<path d="M5.30662 26.2969L4.39258 26.5579L4.52494 27.0177L5.43899 26.7567L5.30662 26.2969Z" fill="#161616"/>
<path d="M5.49712 26.9473L4.59277 27.2399L4.74118 27.6948L5.64553 27.4022L5.49712 26.9473Z" fill="#161616"/>
<path d="M5.7104 27.5879L4.81689 27.9118L4.98115 28.3613L5.87466 28.0374L5.7104 27.5879Z" fill="#161616"/>
<path d="M5.94704 28.2246L5.06543 28.5794L5.24534 29.0228L6.12697 28.6682L5.94704 28.2246Z" fill="#161616"/>
<path d="M6.20405 28.8496L5.33545 29.2348L5.53078 29.6717L6.39938 29.2865L6.20405 28.8496Z" fill="#161616"/>
<path d="M6.48645 29.4707L5.63184 29.8859L5.84239 30.3159L6.697 29.9007L6.48645 29.4707Z" fill="#161616"/>
<path d="M6.78776 30.0762L5.94824 30.5208L6.17373 30.9431L7.01325 30.4985L6.78776 30.0762Z" fill="#161616"/>
<path d="M7.11006 30.6738L6.28662 31.1472L6.52676 31.5616L7.3502 31.0881L7.11006 30.6738Z" fill="#161616"/>
<path d="M7.45182 31.2598L6.64551 31.7614L6.90001 32.1672L7.70633 31.6652L7.45182 31.2598Z" fill="#161616"/>
<path d="M7.81658 31.832L7.02832 32.3617L7.2969 32.758L8.08516 32.2286L7.81658 31.832Z" fill="#161616"/>
<path d="M8.19988 32.3945L7.43066 32.951L7.71298 33.3379L8.4822 32.7814L8.19988 32.3945Z" fill="#161616"/>
<path d="M8.60376 32.9395L7.85449 33.5225L8.1502 33.8994L8.89946 33.3164L8.60376 32.9395Z" fill="#161616"/>
<path d="M9.02472 33.4707L8.29639 34.0792L8.60511 34.4458L9.33344 33.837L9.02472 33.4707Z" fill="#161616"/>
<path d="M9.46341 33.9883L8.75684 34.6222L9.0782 34.9774L9.78477 34.3438L9.46341 33.9883Z" fill="#161616"/>
<path d="M9.92468 34.4883L9.24072 35.1462L9.57439 35.4902L10.2583 34.8324L9.92468 34.4883Z" fill="#161616"/>
<path d="M10.3969 34.9766L9.73633 35.6576L10.0818 35.9899L10.7423 35.3086L10.3969 34.9766Z" fill="#161616"/>
<path d="M10.8882 35.4434L10.252 36.1469L10.6088 36.467L11.2451 35.7634L10.8882 35.4434Z" fill="#161616"/>
<path d="M11.3973 35.8965L10.7861 36.6217L11.154 36.9293L11.7652 36.204L11.3973 35.8965Z" fill="#161616"/>
<path d="M11.9219 36.3301L11.3364 37.0765L11.7149 37.3709L12.3003 36.6248L11.9219 36.3301Z" fill="#161616"/>
<path d="M12.4598 36.7441L11.9009 37.5102L12.2894 37.7915L12.8483 37.0254L12.4598 36.7441Z" fill="#161616"/>
<path d="M13.0122 37.1387L12.4805 37.9236L12.8786 38.1912L13.4103 37.4062L13.0122 37.1387Z" fill="#161616"/>
<path d="M13.5771 37.5117L13.0732 38.3146L13.4805 38.5682L13.9844 37.7653L13.5771 37.5117Z" fill="#161616"/>
<path d="M14.1576 37.8711L13.6821 38.6911L14.0981 38.9304L14.5735 38.1104L14.1576 37.8711Z" fill="#161616"/>
<path d="M14.7482 38.207L14.3018 39.0431L14.7258 39.2678L15.1722 38.4317L14.7482 38.207Z" fill="#161616"/>
<path d="M15.3529 38.5234L14.936 39.3746L15.3677 39.5845L15.7846 38.7333L15.3529 38.5234Z" fill="#161616"/>
<path d="M15.9629 38.8145L15.5762 39.6796L16.0149 39.8741L16.4016 39.0089L15.9629 38.8145Z" fill="#161616"/>
<path d="M16.5886 39.0859L16.2324 39.964L16.6778 40.1433L17.0339 39.265L16.5886 39.0859Z" fill="#161616"/>
<path d="M17.2212 39.3379L16.896 40.2279L17.3473 40.3915L17.6725 39.5015L17.2212 39.3379Z" fill="#161616"/>
<path d="M17.8636 39.5664L17.5698 40.4673L18.0266 40.6149L18.3204 39.7143L17.8636 39.5664Z" fill="#161616"/>
<path d="M18.5116 39.7715L18.2495 40.6818L18.7112 40.8137L18.9733 39.9034L18.5116 39.7715Z" fill="#161616"/>
<path d="M19.1656 39.9551L18.9355 40.8739L19.4016 40.9896L19.6316 40.0707L19.1656 39.9551Z" fill="#161616"/>
<path d="M19.8251 40.1191L19.6274 41.0454L20.0972 41.1448L20.2949 40.2185L19.8251 40.1191Z" fill="#161616"/>
<path d="M20.4943 40.2559L20.3291 41.1884L20.8021 41.2715L20.9672 40.339L20.4943 40.2559Z" fill="#161616"/>
<path d="M21.1655 40.3691L21.0332 41.3068L21.5088 41.3734L21.6412 40.4357L21.1655 40.3691Z" fill="#161616"/>
<path d="M21.8371 40.459L21.7378 41.401L22.2154 41.4509L22.3148 40.509L21.8371 40.459Z" fill="#161616"/>
<path d="M22.5185 40.5312L22.4521 41.4761L22.9313 41.5092L22.9976 40.5647L22.5185 40.5312Z" fill="#161616"/>
<path d="M23.1953 40.5703L23.1621 41.5166L23.6421 41.5334L23.6753 40.5869L23.1953 40.5703Z" fill="#161616"/>
<path d="M24.3553 40.5918H23.875V41.5386H24.3553V40.5918Z" fill="#161616"/>
<path d="M25.0366 40.5703L24.5566 40.5872L24.5898 41.5334L25.0698 41.5169L25.0366 40.5703Z" fill="#161616"/>
<path d="M25.7179 40.5293L25.2388 40.5627L25.3051 41.5075L25.7843 41.4741L25.7179 40.5293Z" fill="#161616"/>
<path d="M26.3902 40.459L25.9126 40.509L26.0119 41.4506L26.4896 41.4007L26.3902 40.459Z" fill="#161616"/>
<path d="M27.0689 40.3691L26.5933 40.4357L26.7256 41.3734L27.2012 41.3068L27.0689 40.3691Z" fill="#161616"/>
<path d="M27.7362 40.2539L27.2632 40.337L27.4282 41.2696L27.9012 41.1865L27.7362 40.2539Z" fill="#161616"/>
<path d="M28.4034 40.1172L27.9336 40.2166L28.1313 41.1428L28.601 41.0432L28.4034 40.1172Z" fill="#161616"/>
<path d="M29.0646 39.957L28.5986 40.0727L28.8286 40.9915L29.2947 40.8759L29.0646 39.957Z" fill="#161616"/>
<path d="M29.7205 39.7754L29.2588 39.9073L29.5208 40.8176L29.9825 40.6857L29.7205 39.7754Z" fill="#161616"/>
<path d="M30.3694 39.5703L29.9126 39.7179L30.2064 40.6185L30.6632 40.4709L30.3694 39.5703Z" fill="#161616"/>
<path d="M31.0094 39.3418L30.5581 39.5054L30.8833 40.3951L31.3346 40.2315L31.0094 39.3418Z" fill="#161616"/>
<path d="M31.6431 39.0879L31.1978 39.2672L31.554 40.1452L31.9992 39.9659L31.6431 39.0879Z" fill="#161616"/>
<path d="M32.2629 38.8145L31.8242 39.0092L32.211 39.8741L32.6496 39.6796L32.2629 38.8145Z" fill="#161616"/>
<path d="M32.8797 38.5215L32.4482 38.7311L32.8651 39.5822L33.2966 39.3724L32.8797 38.5215Z" fill="#161616"/>
<path d="M33.4807 38.2031L33.0566 38.4276L33.503 39.2636L33.9271 39.0392L33.4807 38.2031Z" fill="#161616"/>
<path d="M34.0723 37.8691L33.6562 38.1081L34.1319 38.9282L34.5476 38.6892L34.0723 37.8691Z" fill="#161616"/>
<path d="M34.6491 37.5098L34.2417 37.763L34.7454 38.5662L35.1528 38.3127L34.6491 37.5098Z" fill="#161616"/>
<path d="M35.2166 37.1367L34.8184 37.4043L35.3502 38.1895L35.7481 37.9219L35.2166 37.1367Z" fill="#161616"/>
<path d="M35.7703 36.7422L35.3818 37.0232L35.9406 37.7892L36.3294 37.5083L35.7703 36.7422Z" fill="#161616"/>
<path d="M36.3101 36.3262L35.9316 36.6206L36.5171 37.367L36.8955 37.0723L36.3101 36.3262Z" fill="#161616"/>
<path d="M36.8317 35.8926L36.4639 36.2001L37.0751 36.9254L37.4429 36.6178L36.8317 35.8926Z" fill="#161616"/>
<path d="M37.3379 35.4434L36.981 35.7634L37.6171 36.4673L37.9741 36.1472L37.3379 35.4434Z" fill="#161616"/>
<path d="M37.8333 34.9707L37.4878 35.3031L38.1484 35.9843L38.4938 35.652L37.8333 34.9707Z" fill="#161616"/>
<path d="M38.3088 34.4922L37.9751 34.8363L38.6589 35.4941L38.9926 35.1501L38.3088 34.4922Z" fill="#161616"/>
<path d="M38.7643 33.9883L38.4429 34.3435L39.1493 34.9771L39.4707 34.6219L38.7643 33.9883Z" fill="#161616"/>
<path d="M39.2053 33.4746L38.8965 33.841L39.6247 34.4497L39.9335 34.0831L39.2053 33.4746Z" fill="#161616"/>
<path d="M39.6296 32.9414L39.334 33.3183L40.0831 33.9014L40.3787 33.5245L39.6296 32.9414Z" fill="#161616"/>
<path d="M40.0314 32.3965L39.749 32.7834L40.5182 33.3399L40.8006 32.953L40.0314 32.3965Z" fill="#161616"/>
<path d="M40.4137 31.8359L40.145 32.2325L40.9332 32.7619L41.2018 32.3656L40.4137 31.8359Z" fill="#161616"/>
<path d="M40.7761 31.2617L40.5215 31.6672L41.3277 32.1692L41.5823 31.7634L40.7761 31.2617Z" fill="#161616"/>
<path d="M41.1208 30.6758L40.8809 31.0901L41.7043 31.5635L41.9442 31.1492L41.1208 30.6758Z" fill="#161616"/>
<path d="M41.4441 30.0801L41.2188 30.5024L42.0582 30.947L42.2836 30.5247L41.4441 30.0801Z" fill="#161616"/>
<path d="M41.7478 29.4727L41.5371 29.9027L42.3918 30.3178L42.6025 29.8878L41.7478 29.4727Z" fill="#161616"/>
<path d="M42.0234 28.8516L41.8281 29.2884L42.6965 29.6736L42.8921 29.2365L42.0234 28.8516Z" fill="#161616"/>
<path d="M42.2843 28.2227L42.1045 28.6662L42.9861 29.0208L43.1659 28.5773L42.2843 28.2227Z" fill="#161616"/>
<path d="M42.5197 27.5879L42.3555 28.0374L43.2491 28.3612L43.4134 27.9117L42.5197 27.5879Z" fill="#161616"/>
<path d="M42.7344 26.9453L42.5859 27.4003L43.4905 27.6929L43.6387 27.2379L42.7344 26.9453Z" fill="#161616"/>
<path d="M42.9242 26.293L42.792 26.7528L43.706 27.0138L43.8382 26.554L42.9242 26.293Z" fill="#161616"/>
<path d="M43.0925 25.6367L42.9761 26.1008L43.8987 26.3299L44.0151 25.8658L43.0925 25.6367Z" fill="#161616"/>
<path d="M43.2365 24.9766L43.1367 25.4444L44.0668 25.6413L44.1665 25.1734L43.2365 24.9766Z" fill="#161616"/>
<path d="M43.3574 24.3086L43.2739 24.7796L44.2103 24.9441L44.2937 24.473L43.3574 24.3086Z" fill="#161616"/>
<path d="M43.4589 23.6367L43.3921 24.1104L44.3336 24.2422L44.4004 23.7685L43.4589 23.6367Z" fill="#161616"/>
<path d="M43.5306 22.9648L43.4805 23.4405L44.426 23.5395L44.4762 23.0638L43.5306 22.9648Z" fill="#161616"/>
<path d="M43.5853 22.2871L43.5518 22.7643L44.5002 22.8304L44.5337 22.3532L43.5853 22.2871Z" fill="#161616"/>
<path d="M43.6104 21.6113L43.5938 22.0894L44.5439 22.1224L44.5608 21.6444L43.6104 21.6113Z" fill="#161616"/>
<path d="M44.564 20.9336H43.6133V21.4119H44.564V20.9336Z" fill="#161616"/>
<path d="M44.5442 20.2227L43.5938 20.2557L43.6107 20.7338L44.5608 20.7007L44.5442 20.2227Z" fill="#161616"/>
<path d="M44.5002 19.5117L43.5518 19.5778L43.5853 20.055L44.5337 19.9889L44.5002 19.5117Z" fill="#161616"/>
<path d="M44.426 18.8066L43.4805 18.9056L43.5306 19.3813L44.4762 19.2823L44.426 18.8066Z" fill="#161616"/>
<path d="M44.3336 18.0996L43.3921 18.2314L43.4589 18.7051L44.4004 18.5733L44.3336 18.0996Z" fill="#161616"/>
<path d="M44.2113 17.4023L43.2749 17.5667L43.3583 18.0378L44.2947 17.8734L44.2113 17.4023Z" fill="#161616"/>
<path d="M44.0653 16.7051L43.1353 16.902L43.235 17.3698L44.1651 17.1729L44.0653 16.7051Z" fill="#161616"/>
<path d="M43.8992 16.0137L42.9766 16.2427L43.093 16.7069L44.0156 16.4778L43.8992 16.0137Z" fill="#161616"/>
<path d="M43.7075 15.332L42.7935 15.593L42.9256 16.0528L43.8399 15.7919L43.7075 15.332Z" fill="#161616"/>
<path d="M43.4907 14.6523L42.5864 14.945L42.7347 15.3999L43.6392 15.1073L43.4907 14.6523Z" fill="#161616"/>
<path d="M43.2498 13.9805L42.3564 14.3043L42.5207 14.7538L43.4141 14.4299L43.2498 13.9805Z" fill="#161616"/>
<path d="M42.9861 13.3203L42.1045 13.6751L42.2843 14.1186L43.1659 13.7638L42.9861 13.3203Z" fill="#161616"/>
<path d="M42.697 12.6699L41.8286 13.0551L42.0239 13.492L42.8926 13.1069L42.697 12.6699Z" fill="#161616"/>
<path d="M42.3903 12.0273L41.5356 12.4425L41.7461 12.8724L42.6007 12.4572L42.3903 12.0273Z" fill="#161616"/>
<path d="M42.0567 11.3984L41.2173 11.843L41.4426 12.2654L42.2821 11.8207L42.0567 11.3984Z" fill="#161616"/>
<path d="M41.7043 10.7832L40.8809 11.2567L41.1211 11.6709L41.9445 11.1974L41.7043 10.7832Z" fill="#161616"/>
<path d="M41.3282 10.1777L40.522 10.6796L40.7766 11.0852L41.5828 10.5834L41.3282 10.1777Z" fill="#161616"/>
<path d="M40.9332 9.58594L40.145 10.1155L40.4137 10.512L41.2018 9.98246L40.9332 9.58594Z" fill="#161616"/>
<path d="M40.5178 9.00781L39.7485 9.56444L40.0309 9.95139L40.8002 9.39477L40.5178 9.00781Z" fill="#161616"/>
<path d="M40.0817 8.44531L39.3325 9.02838L39.6281 9.40528L40.3775 8.82225L40.0817 8.44531Z" fill="#161616"/>
<path d="M39.6242 7.89844L38.896 8.50714L39.2048 8.87354L39.933 8.26484L39.6242 7.89844Z" fill="#161616"/>
<path d="M39.1503 7.36719L38.4438 8.00079L38.765 8.35625L39.4717 7.72262L39.1503 7.36719Z" fill="#161616"/>
<path d="M38.6569 6.85156L37.9731 7.50944L38.3069 7.85348L38.9906 7.19563L38.6569 6.85156Z" fill="#161616"/>
<path d="M38.1493 6.35938L37.4888 7.04055L37.8342 7.37286L38.4948 6.69168L38.1493 6.35938Z" fill="#161616"/>
<path d="M37.6186 5.87891L36.9824 6.58261L37.3394 6.90266L37.9755 6.19896L37.6186 5.87891Z" fill="#161616"/>
<path d="M37.0761 5.41992L36.4648 6.1453L36.8327 6.45279L37.4439 5.72739L37.0761 5.41992Z" fill="#161616"/>
<path d="M36.5171 4.97852L35.9316 5.72473L36.3104 6.01923L36.8958 5.27302L36.5171 4.97852Z" fill="#161616"/>
<path d="M35.9409 4.55664L35.3818 5.32273L35.7703 5.6039L36.3294 4.83781L35.9409 4.55664Z" fill="#161616"/>
<path d="M35.3514 4.1543L34.8198 4.93935L35.218 5.20684L35.7496 4.42179L35.3514 4.1543Z" fill="#161616"/>
<path d="M34.7477 3.77539L34.2437 4.57843L34.6511 4.8319L35.1548 4.02886L34.7477 3.77539Z" fill="#161616"/>
<path d="M34.1321 3.41602L33.6567 4.2361L34.0727 4.47527L34.5481 3.65518L34.1321 3.41602Z" fill="#161616"/>
<path d="M33.5045 3.08008L33.0581 3.91618L33.4821 4.14076L33.9285 3.30465L33.5045 3.08008Z" fill="#161616"/>
<path d="M32.8651 2.76172L32.4482 3.61285L32.88 3.82255L33.2969 2.97143L32.8651 2.76172Z" fill="#161616"/>
<path d="M32.212 2.4707L31.8252 3.33576L32.2641 3.53029L32.6509 2.66524L32.212 2.4707Z" fill="#161616"/>
<path d="M31.5535 2.20117L31.1973 3.07921L31.6426 3.25839L31.9988 2.38035L31.5535 2.20117Z" fill="#161616"/>
<path d="M30.8833 1.95117L30.5581 2.84105L31.0094 3.00464L31.3346 2.11476L30.8833 1.95117Z" fill="#161616"/>
<path d="M30.2064 1.72852L29.9126 2.62919L30.3694 2.77699L30.6632 1.87632L30.2064 1.72852Z" fill="#161616"/>
<path d="M29.5208 1.52734L29.2588 2.43767L29.7205 2.5695L29.9825 1.65917L29.5208 1.52734Z" fill="#161616"/>
<path d="M28.8286 1.35352L28.5986 2.27237L29.0646 2.38807L29.2947 1.46922L28.8286 1.35352Z" fill="#161616"/>
<path d="M28.1322 1.20312L27.9346 2.12937L28.4043 2.22881L28.602 1.30257L28.1322 1.20312Z" fill="#161616"/>
<path d="M27.4288 1.07422L27.2637 2.0068L27.7367 2.08984L27.9017 1.15726L27.4288 1.07422Z" fill="#161616"/>
<path d="M26.7246 0.970703L26.5923 1.90849L27.0679 1.97508L27.2003 1.03728L26.7246 0.970703Z" fill="#161616"/>
<path d="M26.0129 0.894531L25.9136 1.8363L26.3912 1.88629L26.4906 0.944517L26.0129 0.894531Z" fill="#161616"/>
<path d="M25.3037 0.837891L25.2373 1.7826L25.7164 1.81598L25.7828 0.871278L25.3037 0.837891Z" fill="#161616"/>
<path d="M24.5893 0.810547L24.5562 1.75696L25.0361 1.77365L25.0693 0.827239L24.5893 0.810547Z" fill="#161616"/>
<path d="M7.60339 21.8299C7.96808 21.7709 8.21573 21.4287 8.15655 21.0655C8.09735 20.7022 7.75374 20.4556 7.38905 20.5146C7.02437 20.5735 6.77669 20.9157 6.83589 21.2789C6.89507 21.6421 7.23871 21.8888 7.60339 21.8299Z" fill="#161616"/>
<path d="M40.6322 21.8279C40.9969 21.769 41.2446 21.4268 41.1855 21.0635C41.1262 20.7003 40.7827 20.4537 40.418 20.5126C40.0533 20.5716 39.8056 20.9138 39.8647 21.277C39.924 21.6402 40.2675 21.8869 40.6322 21.8279Z" fill="#161616"/>
<path d="M19.5637 36.003C19.6626 36.003 19.7427 35.9231 19.7427 35.8247C19.7427 35.7261 19.6626 35.6465 19.5637 35.6465C19.4649 35.6465 19.3848 35.7261 19.3848 35.8247C19.3848 35.9231 19.4649 36.003 19.5637 36.003Z" fill="#161616"/>
<path d="M27.9431 36.003C28.042 36.003 28.1221 35.9231 28.1221 35.8247C28.1221 35.7261 28.042 35.6465 27.9431 35.6465C27.8443 35.6465 27.7642 35.7261 27.7642 35.8247C27.7642 35.9231 27.8443 36.003 27.9431 36.003Z" fill="#161616"/>
<path d="M21.1395 36.3418L20.959 36.5165V36.7418H22.0575V36.4317H21.4917C21.792 36.143 22.0206 35.8966 22.0206 35.5885C22.0206 35.3375 21.8569 35.084 21.491 35.084C21.3169 35.084 21.1501 35.1437 21.0212 35.2522L20.9799 35.287L21.1054 35.5637L21.1778 35.5037C21.2271 35.4626 21.3279 35.3941 21.4496 35.3941C21.6011 35.3941 21.6748 35.466 21.6748 35.6131C21.6728 35.8055 21.5155 35.9854 21.1395 36.3418Z" fill="#161616"/>
<path d="M23.1983 35.084C22.8387 35.084 22.6064 35.4161 22.6064 35.9309C22.6113 36.4466 22.8283 36.7669 23.1729 36.7669C23.5491 36.7669 23.7648 36.4546 23.7648 35.9095C23.7648 35.3926 23.553 35.084 23.1983 35.084ZM23.1844 36.4685C23.0434 36.4685 22.9523 36.2581 22.9523 35.9323C22.9523 35.5985 23.0443 35.3827 23.1867 35.3827C23.3887 35.3827 23.4189 35.7184 23.4189 35.9186C23.4189 36.0839 23.396 36.4685 23.1844 36.4685Z" fill="#161616"/>
<path d="M24.9166 36.744V35.1113H24.6543L24.2622 35.3203L24.3377 35.617L24.5776 35.4879V36.744H24.9166Z" fill="#161616"/>
<path d="M26.5382 35.5885C26.5382 35.3373 26.3744 35.084 26.0085 35.084C25.8345 35.084 25.6677 35.1437 25.5388 35.2522L25.4974 35.287L25.623 35.5637L25.6954 35.5037C25.7447 35.4626 25.8455 35.3941 25.9671 35.3941C26.1187 35.3941 26.1923 35.466 26.1923 35.6131C26.1904 35.8055 26.0331 35.9854 25.6571 36.3418L25.4766 36.5165V36.7418H26.5751V36.4317H26.0093C26.3096 36.143 26.5382 35.8966 26.5382 35.5885Z" fill="#161616"/>
</g>
<path d="M2.59634 51.7506H1.32046L1.3136 51.0853H2.4077C2.59519 51.0853 2.75182 51.059 2.87758 51.0064C3.00334 50.9538 3.09823 50.8772 3.16225 50.7766C3.22856 50.676 3.26171 50.5537 3.26171 50.4096C3.26171 50.2495 3.23084 50.1192 3.16911 50.0186C3.10966 49.918 3.01591 49.8448 2.88787 49.7991C2.75982 49.7511 2.59748 49.7271 2.40084 49.7271H1.62571V53.9766H0.682524V48.9828H2.40084C2.68437 48.9828 2.93703 49.0103 3.15882 49.0651C3.3829 49.1177 3.57268 49.2 3.72816 49.3121C3.88364 49.4241 4.0014 49.5647 4.08143 49.7339C4.16374 49.9031 4.2049 50.1044 4.2049 50.3376C4.2049 50.5434 4.15688 50.7331 4.06085 50.9069C3.9671 51.0784 3.82191 51.2179 3.62527 51.3253C3.43091 51.4328 3.18397 51.4946 2.88444 51.5106L2.59634 51.7506ZM2.55518 53.9766H1.04265L1.43707 53.2357H2.55518C2.74267 53.2357 2.89701 53.2049 3.0182 53.1431C3.14167 53.0814 3.23313 52.9968 3.29258 52.8893C3.35432 52.7796 3.38518 52.6538 3.38518 52.512C3.38518 52.3566 3.35775 52.2217 3.30287 52.1073C3.25028 51.993 3.16568 51.905 3.04907 51.8432C2.93474 51.7815 2.78383 51.7506 2.59634 51.7506H1.61542L1.62228 51.0853H2.87072L3.08679 51.3425C3.37489 51.3448 3.60926 51.4019 3.7899 51.514C3.97282 51.626 4.10772 51.7701 4.19461 51.9461C4.2815 52.1222 4.32494 52.312 4.32494 52.5155C4.32494 52.8356 4.2552 53.1043 4.11573 53.3215C3.97853 53.5387 3.77732 53.7022 3.51209 53.8119C3.24914 53.9217 2.93017 53.9766 2.55518 53.9766ZM6.87326 50.2655V53.9766H5.96437V50.2655H6.87326ZM8.08054 50.2655V50.9721H4.77767V50.2655H8.08054ZM8.32749 52.1588V52.0868C8.32749 51.8147 8.36636 51.5643 8.4441 51.3356C8.52184 51.1047 8.63502 50.9046 8.78364 50.7354C8.93227 50.5662 9.11405 50.4348 9.32898 50.341C9.54391 50.245 9.78857 50.197 10.0629 50.197C10.3419 50.197 10.5888 50.245 10.8038 50.341C11.021 50.4348 11.2039 50.5662 11.3525 50.7354C11.5012 50.9046 11.6143 51.1047 11.6921 51.3356C11.7698 51.5643 11.8087 51.8147 11.8087 52.0868V52.1588C11.8087 52.4286 11.7698 52.679 11.6921 52.9099C11.6143 53.1386 11.5012 53.3386 11.3525 53.5101C11.2039 53.6793 11.0221 53.8108 10.8072 53.9045C10.5923 53.9983 10.3465 54.0452 10.0698 54.0452C9.79543 54.0452 9.54963 53.9983 9.33241 53.9045C9.11519 53.8108 8.93227 53.6793 8.78364 53.5101C8.63502 53.3386 8.52184 53.1386 8.4441 52.9099C8.36636 52.679 8.32749 52.4286 8.32749 52.1588ZM9.23294 52.0868V52.1588C9.23294 52.3211 9.24895 52.4732 9.28096 52.6149C9.31297 52.7567 9.36213 52.8813 9.42844 52.9888C9.49475 53.0963 9.5805 53.1809 9.68567 53.2426C9.79314 53.302 9.92119 53.3318 10.0698 53.3318C10.2161 53.3318 10.3419 53.302 10.4471 53.2426C10.5523 53.1809 10.638 53.0963 10.7043 52.9888C10.7729 52.8813 10.8232 52.7567 10.8552 52.6149C10.8872 52.4732 10.9032 52.3211 10.9032 52.1588V52.0868C10.9032 51.9267 10.8872 51.7769 10.8552 51.6375C10.8232 51.4957 10.7729 51.3711 10.7043 51.2636C10.638 51.1539 10.5511 51.0681 10.4437 51.0064C10.3385 50.9424 10.2116 50.9103 10.0629 50.9103C9.91661 50.9103 9.79085 50.9424 9.68567 51.0064C9.5805 51.0681 9.49475 51.1539 9.42844 51.2636C9.36213 51.3711 9.31297 51.4957 9.28096 51.6375C9.24895 51.7769 9.23294 51.9267 9.23294 52.0868ZM13.3727 50.9789V55.4033H12.4638V50.2655H13.3041L13.3727 50.9789ZM15.7564 52.0833V52.1554C15.7564 52.4252 15.7244 52.6755 15.6603 52.9065C15.5986 53.1351 15.5071 53.3352 15.386 53.5067C15.2648 53.6759 15.1139 53.8085 14.9332 53.9045C14.7549 53.9983 14.5491 54.0452 14.3159 54.0452C14.0872 54.0452 13.8883 54.0017 13.7191 53.9148C13.5499 53.8257 13.407 53.6999 13.2904 53.5376C13.1738 53.3752 13.08 53.1866 13.0091 52.9716C12.9405 52.7544 12.8891 52.5178 12.8548 52.2617V52.0319C12.8891 51.7598 12.9405 51.5128 13.0091 51.2911C13.08 51.067 13.1738 50.8738 13.2904 50.7114C13.407 50.5468 13.5487 50.4199 13.7157 50.3307C13.8849 50.2415 14.0826 50.197 14.309 50.197C14.5445 50.197 14.7514 50.2415 14.9298 50.3307C15.1104 50.4199 15.2625 50.5479 15.386 50.7148C15.5094 50.8818 15.602 51.0807 15.6638 51.3116C15.7255 51.5426 15.7564 51.7998 15.7564 52.0833ZM14.8475 52.1554V52.0833C14.8475 51.9187 14.8326 51.7666 14.8029 51.6272C14.7732 51.4854 14.7274 51.3619 14.6657 51.2568C14.604 51.1493 14.5239 51.0658 14.4256 51.0064C14.3273 50.9469 14.2084 50.9172 14.0689 50.9172C13.9294 50.9172 13.8094 50.9401 13.7088 50.9858C13.6082 51.0315 13.5259 51.0967 13.4619 51.1813C13.3978 51.2659 13.3475 51.3665 13.3109 51.4831C13.2766 51.5974 13.2538 51.7243 13.2423 51.8638V52.4332C13.2629 52.6024 13.3029 52.7544 13.3624 52.8893C13.4218 53.0242 13.5087 53.1317 13.6231 53.2117C13.7397 53.2918 13.8906 53.3318 14.0758 53.3318C14.2153 53.3318 14.3342 53.3009 14.4325 53.2392C14.5308 53.1774 14.6108 53.0928 14.6726 52.9854C14.7343 52.8756 14.7789 52.7498 14.8063 52.6081C14.8338 52.4663 14.8475 52.3154 14.8475 52.1554ZM18.6305 48.9828V53.9766H17.6908V48.9828H18.6305ZM20.1808 48.9828V49.7271H16.1577V48.9828H20.1808ZM22.0843 54.0452C21.8031 54.0452 21.5504 53.9994 21.3263 53.908C21.1022 53.8165 20.9113 53.6896 20.7535 53.5273C20.5981 53.3626 20.478 53.1717 20.3934 52.9545C20.3111 52.735 20.27 52.4995 20.27 52.248V52.1108C20.27 51.825 20.3111 51.5654 20.3934 51.3322C20.4757 51.0967 20.5924 50.8943 20.7433 50.7251C20.8942 50.5559 21.0748 50.4256 21.2852 50.3341C21.4955 50.2427 21.7276 50.197 21.9814 50.197C22.2444 50.197 22.4764 50.2415 22.6777 50.3307C22.8789 50.4176 23.0469 50.5411 23.1818 50.7011C23.3167 50.8612 23.4185 51.0533 23.4871 51.2773C23.5557 51.4991 23.59 51.7449 23.59 52.0147V52.3954H20.6815V51.7712H22.6982V51.7026C22.6937 51.5586 22.6662 51.4271 22.6159 51.3082C22.5656 51.187 22.4879 51.091 22.3827 51.0201C22.2775 50.9469 22.1415 50.9103 21.9745 50.9103C21.8396 50.9103 21.7219 50.9401 21.6213 50.9995C21.523 51.0567 21.4406 51.139 21.3743 51.2465C21.3103 51.3516 21.2623 51.4774 21.2303 51.6237C21.1983 51.7701 21.1823 51.9324 21.1823 52.1108V52.248C21.1823 52.4034 21.2028 52.5475 21.244 52.6801C21.2875 52.8127 21.3503 52.9282 21.4326 53.0265C21.5172 53.1225 21.6179 53.198 21.7345 53.2529C21.8534 53.3055 21.9883 53.3318 22.1392 53.3318C22.329 53.3318 22.5004 53.2952 22.6536 53.222C22.8091 53.1466 22.944 53.0357 23.0584 52.8893L23.5145 53.3626C23.4368 53.477 23.3316 53.5867 23.199 53.6919C23.0686 53.7971 22.9109 53.8828 22.7257 53.9491C22.5405 54.0131 22.3267 54.0452 22.0843 54.0452ZM24.907 50.2655L25.5689 51.4454L26.2412 50.2655H27.2255L26.1349 52.0833L27.2701 53.9766H26.2858L25.5758 52.7384L24.8624 53.9766H23.8781L25.0099 52.0833L23.9261 50.2655H24.907ZM28.2305 48.9828H29.0467L30.4118 52.7418L31.7734 48.9828H32.5931L30.7376 53.9766H30.0825L28.2305 48.9828ZM27.8189 48.9828H28.618L28.7621 52.4366V53.9766H27.8189V48.9828ZM32.2021 48.9828H33.0047V53.9766H32.0615V52.4366L32.2021 48.9828ZM34.8122 52.6835L36.1635 50.2655H37.0724V53.9766H36.1635V51.5551L34.8122 53.9766H33.9033V50.2655H34.8122V52.6835ZM38.8627 50.2655V53.9766H37.9573V50.2655H38.8627ZM41.2807 50.2655L39.6447 52.5429H38.681L38.5678 51.7129H39.2366L40.1386 50.2655H41.2807ZM40.1935 53.9766L39.1783 52.3851L39.9328 51.9118L41.3973 53.9766H40.1935ZM43.2803 53.3318C43.4083 53.3318 43.5227 53.3066 43.6233 53.2563C43.7239 53.206 43.8039 53.1351 43.8633 53.0437C43.9251 52.9522 43.9582 52.8459 43.9628 52.7247H44.8168C44.8123 52.9762 44.7414 53.2014 44.6042 53.4004C44.467 53.5993 44.2841 53.7571 44.0554 53.8737C43.8291 53.988 43.5752 54.0452 43.294 54.0452C43.0082 54.0452 42.759 53.9971 42.5463 53.9011C42.3337 53.8051 42.1565 53.6713 42.0147 53.4998C41.8752 53.3283 41.77 53.1294 41.6992 52.903C41.6306 52.6767 41.5963 52.4343 41.5963 52.1759V52.0662C41.5963 51.8078 41.6306 51.5654 41.6992 51.3391C41.77 51.1127 41.8752 50.9138 42.0147 50.7423C42.1565 50.5708 42.3337 50.437 42.5463 50.341C42.759 50.245 43.0071 50.197 43.2906 50.197C43.5901 50.197 43.8531 50.2553 44.0794 50.3719C44.3081 50.4885 44.4864 50.6531 44.6145 50.8658C44.7448 51.0784 44.8123 51.3288 44.8168 51.6169H43.9628C43.9582 51.4843 43.9285 51.3654 43.8736 51.2602C43.8188 51.155 43.741 51.0704 43.6404 51.0064C43.5398 50.9424 43.4175 50.9103 43.2734 50.9103C43.1202 50.9103 42.9922 50.9424 42.8893 51.0064C42.7887 51.0704 42.7098 51.1584 42.6526 51.2705C42.5978 51.3802 42.5589 51.5037 42.536 51.6409C42.5154 51.7758 42.5052 51.9176 42.5052 52.0662V52.1759C42.5052 52.3268 42.5154 52.4709 42.536 52.6081C42.5589 52.7453 42.5978 52.8687 42.6526 52.9785C42.7098 53.086 42.7887 53.1717 42.8893 53.2357C42.9922 53.2998 43.1225 53.3318 43.2803 53.3318Z" fill="#161616"/>
<defs>
<clipPath id="clip0_113_7651">
<rect width="42.145" height="42.145" fill="white" transform="translate(3.07275)"/>
</clipPath>
</defs>
</svg>
