<svg width="70" height="45" viewBox="0 0 70 45" fill="none" xmlns="http://www.w3.org/2000/svg">
<path d="M19.2285 11.8438L22.7246 2.78125H25.8789L21.0059 14.2461C20.8366 14.6367 20.6413 15.0111 20.4199 15.3691C20.2051 15.7207 19.9479 16.0365 19.6484 16.3164C19.349 16.5898 18.9909 16.8079 18.5742 16.9707C18.1576 17.127 17.6595 17.2051 17.0801 17.2051C16.9368 17.2051 16.7611 17.2018 16.5527 17.1953C16.3444 17.1888 16.1784 17.179 16.0547 17.166L16.0352 14.8809C16.1133 14.9004 16.237 14.9134 16.4062 14.9199C16.5755 14.9199 16.6992 14.9199 16.7773 14.9199C17.1615 14.9199 17.4642 14.8646 17.6855 14.7539C17.9069 14.6432 18.0827 14.487 18.2129 14.2852C18.3496 14.0768 18.4701 13.8327 18.5742 13.5527L19.2285 11.8438ZM16.9141 2.78125L20.1562 9.82227L21.0645 13.0547L18.8867 13.0938L13.7695 2.78125H16.9141ZM28.7402 2.78125H31.2207L34.873 13.2207L38.5254 2.78125H41.0059L35.8691 17H33.877L28.7402 2.78125ZM27.4023 2.78125H29.873L30.3223 12.957V17H27.4023V2.78125ZM39.873 2.78125H42.3535V17H39.4238V12.957L39.873 2.78125ZM50.2344 10.1836H48.0273V8.63086H49.7852C50.2995 8.63086 50.7161 8.55273 51.0352 8.39648C51.3542 8.23372 51.5885 8.00586 51.7383 7.71289C51.888 7.41992 51.9629 7.07487 51.9629 6.67773C51.9629 6.35221 51.8783 6.05273 51.709 5.7793C51.5462 5.50586 51.2923 5.28776 50.9473 5.125C50.6022 4.95573 50.1628 4.87109 49.6289 4.87109C49.2253 4.87109 48.8574 4.94271 48.5254 5.08594C48.1934 5.22917 47.9297 5.43099 47.7344 5.69141C47.5391 5.94531 47.4414 6.25456 47.4414 6.61914H44.5215C44.5215 5.99414 44.6549 5.43424 44.9219 4.93945C45.1953 4.43815 45.5664 4.01497 46.0352 3.66992C46.5104 3.31836 47.0573 3.05143 47.6758 2.86914C48.2943 2.68685 48.9453 2.5957 49.6289 2.5957C50.4297 2.5957 51.1523 2.68359 51.7969 2.85938C52.4414 3.02865 52.9948 3.28255 53.457 3.62109C53.9193 3.95964 54.2741 4.37956 54.5215 4.88086C54.7689 5.38216 54.8926 5.96484 54.8926 6.62891C54.8926 7.11719 54.7819 7.57617 54.5605 8.00586C54.3392 8.43555 54.0234 8.81315 53.6133 9.13867C53.2031 9.46419 52.7116 9.72135 52.1387 9.91016C51.5658 10.0924 50.931 10.1836 50.2344 10.1836ZM48.0273 9.33398H50.2344C51.0091 9.33398 51.696 9.41536 52.2949 9.57812C52.9004 9.74089 53.4115 9.97852 53.8281 10.291C54.2513 10.6035 54.5703 10.9909 54.7852 11.4531C55.0065 11.9089 55.1172 12.4329 55.1172 13.0254C55.1172 13.6895 54.9805 14.2786 54.707 14.793C54.4401 15.3073 54.0592 15.7435 53.5645 16.1016C53.0762 16.4596 52.4967 16.7298 51.8262 16.9121C51.1621 17.0944 50.4297 17.1855 49.6289 17.1855C48.9909 17.1855 48.3561 17.1074 47.7246 16.9512C47.0931 16.7884 46.5202 16.541 46.0059 16.209C45.4915 15.877 45.0814 15.4505 44.7754 14.9297C44.4694 14.4089 44.3164 13.7839 44.3164 13.0547H47.2559C47.2559 13.3997 47.3568 13.7155 47.5586 14.002C47.7604 14.2819 48.0404 14.5065 48.3984 14.6758C48.7565 14.8385 49.1667 14.9199 49.6289 14.9199C50.1693 14.9199 50.6283 14.8353 51.0059 14.666C51.39 14.4967 51.6797 14.2656 51.875 13.9727C52.0768 13.6732 52.1777 13.3444 52.1777 12.9863C52.1777 12.6022 52.1257 12.2767 52.0215 12.0098C51.9173 11.7428 51.7643 11.5247 51.5625 11.3555C51.3607 11.1797 51.11 11.0527 50.8105 10.9746C50.5176 10.8965 50.1758 10.8574 49.7852 10.8574H48.0273V9.33398Z" fill="#161616"/>
<path d="M19.083 27.4531L20.1318 24.7344H21.0781L19.6162 28.1738C19.5654 28.291 19.5068 28.4033 19.4404 28.5107C19.376 28.6162 19.2988 28.7109 19.209 28.7949C19.1191 28.877 19.0117 28.9424 18.8867 28.9912C18.7617 29.0381 18.6123 29.0615 18.4385 29.0615C18.3955 29.0615 18.3428 29.0605 18.2803 29.0586C18.2178 29.0566 18.168 29.0537 18.1309 29.0498L18.125 28.3643C18.1484 28.3701 18.1855 28.374 18.2363 28.376C18.2871 28.376 18.3242 28.376 18.3477 28.376C18.4629 28.376 18.5537 28.3594 18.6201 28.3262C18.6865 28.293 18.7393 28.2461 18.7783 28.1855C18.8193 28.123 18.8555 28.0498 18.8867 27.9658L19.083 27.4531ZM18.3887 24.7344L19.3613 26.8467L19.6338 27.8164L18.9805 27.8281L17.4453 24.7344H18.3887ZM22.0684 26.4395V30.2188H21.2246V25.8301H22.0068L22.0684 26.4395ZM24.0752 27.3799V27.4414C24.0752 27.6719 24.0479 27.8857 23.9932 28.083C23.9404 28.2803 23.8623 28.4521 23.7588 28.5986C23.6553 28.7432 23.5264 28.8564 23.3721 28.9385C23.2197 29.0186 23.0439 29.0586 22.8447 29.0586C22.6514 29.0586 22.4834 29.0195 22.3408 28.9414C22.1982 28.8633 22.0781 28.7539 21.9805 28.6133C21.8848 28.4707 21.8076 28.3057 21.749 28.1182C21.6904 27.9307 21.6455 27.7295 21.6143 27.5146V27.3535C21.6455 27.123 21.6904 26.9121 21.749 26.7207C21.8076 26.5273 21.8848 26.3604 21.9805 26.2197C22.0781 26.0771 22.1973 25.9668 22.3379 25.8887C22.4805 25.8105 22.6475 25.7715 22.8389 25.7715C23.04 25.7715 23.2168 25.8096 23.3691 25.8857C23.5234 25.9619 23.6523 26.0713 23.7559 26.2139C23.8613 26.3564 23.9404 26.5264 23.9932 26.7236C24.0479 26.9209 24.0752 27.1396 24.0752 27.3799ZM23.2285 27.4414V27.3799C23.2285 27.2451 23.2168 27.1211 23.1934 27.0078C23.1719 26.8926 23.1367 26.792 23.0879 26.7061C23.041 26.6201 22.9785 26.5537 22.9004 26.5068C22.8242 26.458 22.7314 26.4336 22.6221 26.4336C22.5068 26.4336 22.4082 26.4521 22.3262 26.4893C22.2461 26.5264 22.1807 26.5801 22.1299 26.6504C22.0791 26.7207 22.041 26.8047 22.0156 26.9023C21.9902 27 21.9746 27.1104 21.9688 27.2334V27.6406C21.9785 27.7852 22.0059 27.915 22.0508 28.0303C22.0957 28.1436 22.165 28.2334 22.2588 28.2998C22.3525 28.3662 22.4756 28.3994 22.6279 28.3994C22.7393 28.3994 22.833 28.375 22.9092 28.3262C22.9854 28.2754 23.0469 28.2061 23.0938 28.1182C23.1426 28.0303 23.1768 27.9287 23.1963 27.8135C23.2178 27.6982 23.2285 27.5742 23.2285 27.4414ZM26.5127 27.0576V27.7197H24.8018V27.0576H26.5127ZM25.5137 25.8301V29H24.667V25.8301H25.5137ZM25.9414 27.4473V27.3857C25.9414 27.1533 25.9746 26.9395 26.041 26.7441C26.1074 26.5469 26.2041 26.376 26.3311 26.2314C26.46 26.0869 26.6172 25.9746 26.8027 25.8945C26.9883 25.8125 27.2002 25.7715 27.4385 25.7715C27.6807 25.7715 27.8945 25.8125 28.0801 25.8945C28.2676 25.9746 28.4258 26.0869 28.5547 26.2314C28.6836 26.376 28.7803 26.5469 28.8447 26.7441C28.9111 26.9395 28.9443 27.1533 28.9443 27.3857V27.4473C28.9443 27.6777 28.9111 27.8916 28.8447 28.0889C28.7803 28.2842 28.6836 28.4551 28.5547 28.6016C28.4277 28.7461 28.2705 28.8584 28.083 28.9385C27.8975 29.0186 27.6846 29.0586 27.4443 29.0586C27.2041 29.0586 26.9912 29.0186 26.8057 28.9385C26.6201 28.8584 26.4629 28.7461 26.334 28.6016C26.2051 28.4551 26.1074 28.2842 26.041 28.0889C25.9746 27.8916 25.9414 27.6777 25.9414 27.4473ZM26.7852 27.3857V27.4473C26.7852 27.5801 26.7969 27.7041 26.8203 27.8193C26.8457 27.9346 26.8838 28.0361 26.9346 28.124C26.9873 28.21 27.0557 28.2773 27.1396 28.3262C27.2236 28.375 27.3252 28.3994 27.4443 28.3994C27.5635 28.3994 27.6641 28.375 27.7461 28.3262C27.8301 28.2773 27.8975 28.21 27.9482 28.124C28.001 28.0361 28.0391 27.9346 28.0625 27.8193C28.0879 27.7041 28.1006 27.5801 28.1006 27.4473V27.3857C28.1006 27.2568 28.0879 27.1357 28.0625 27.0225C28.0391 26.9072 28.001 26.8057 27.9482 26.7178C27.8975 26.6279 27.8301 26.5576 27.7461 26.5068C27.6621 26.4561 27.5596 26.4307 27.4385 26.4307C27.3213 26.4307 27.2207 26.4561 27.1367 26.5068C27.0547 26.5576 26.9873 26.6279 26.9346 26.7178C26.8838 26.8057 26.8457 26.9072 26.8203 27.0225C26.7969 27.1357 26.7852 27.2568 26.7852 27.3857ZM31.6016 25.8301V26.4922H30.0664V25.8301H31.6016ZM30.3096 25.8301V29H29.4658V25.8301H30.3096ZM32.2168 25.8301V29H31.3701V25.8301H32.2168ZM33.708 27.8223L34.7715 25.8301H35.6152V29H34.7715V27.0049L33.708 29H32.8643V25.8301H33.708V27.8223ZM38.4365 27.1104V27.7666H36.8252V27.1104H38.4365ZM37.1064 25.8301V29H36.2627V25.8301H37.1064ZM39.0078 25.8301V29H38.1611V25.8301H39.0078ZM40.9736 28.3994C41.0771 28.3994 41.1689 28.3799 41.249 28.3408C41.3291 28.2998 41.3916 28.2432 41.4365 28.1709C41.4834 28.0967 41.5078 28.0098 41.5098 27.9102H42.3037C42.3018 28.1328 42.2422 28.3311 42.125 28.5049C42.0078 28.6768 41.8506 28.8125 41.6533 28.9121C41.4561 29.0098 41.2354 29.0586 40.9912 29.0586C40.7451 29.0586 40.5303 29.0176 40.3467 28.9355C40.165 28.8535 40.0137 28.7402 39.8926 28.5957C39.7715 28.4492 39.6807 28.2793 39.6201 28.0859C39.5596 27.8906 39.5293 27.6816 39.5293 27.459V27.374C39.5293 27.1494 39.5596 26.9404 39.6201 26.7471C39.6807 26.5518 39.7715 26.3818 39.8926 26.2373C40.0137 26.0908 40.165 25.9766 40.3467 25.8945C40.5283 25.8125 40.7412 25.7715 40.9854 25.7715C41.2451 25.7715 41.4727 25.8213 41.668 25.9209C41.8652 26.0205 42.0195 26.1631 42.1309 26.3486C42.2441 26.5322 42.3018 26.75 42.3037 27.002H41.5098C41.5078 26.8965 41.4854 26.8008 41.4424 26.7148C41.4014 26.6289 41.3408 26.5605 41.2607 26.5098C41.1826 26.457 41.0859 26.4307 40.9707 26.4307C40.8477 26.4307 40.7471 26.457 40.6689 26.5098C40.5908 26.5605 40.5303 26.6309 40.4873 26.7207C40.4443 26.8086 40.4141 26.9092 40.3965 27.0225C40.3809 27.1338 40.373 27.251 40.373 27.374V27.459C40.373 27.582 40.3809 27.7002 40.3965 27.8135C40.4121 27.9268 40.4414 28.0273 40.4844 28.1152C40.5293 28.2031 40.5908 28.2725 40.6689 28.3232C40.7471 28.374 40.8486 28.3994 40.9736 28.3994ZM43.6924 25.8301V29H42.8486V25.8301H43.6924ZM45.752 25.8301L44.3867 27.8135H43.543L43.4404 27.0342H44L44.6826 25.8301H45.752ZM44.7207 29L43.9414 27.6611L44.6768 27.2539L45.8516 29H44.7207ZM47.0088 27.8223L48.0723 25.8301H48.916V29H48.0723V27.0049L47.0088 29H46.165V25.8301H47.0088V27.8223ZM50.4072 27.8223L51.4707 25.8301H52.3145V29H51.4707V27.0049L50.4072 29H49.5635V25.8301H50.4072V27.8223ZM51.374 24.5557H51.9746C51.9746 24.7236 51.9326 24.873 51.8486 25.0039C51.7666 25.1328 51.6494 25.2344 51.4971 25.3086C51.3447 25.3809 51.165 25.417 50.958 25.417C50.6436 25.417 50.3945 25.3369 50.2109 25.1768C50.0293 25.0166 49.9385 24.8096 49.9385 24.5557H50.5361C50.5361 24.6572 50.5674 24.748 50.6299 24.8281C50.6943 24.9082 50.8037 24.9482 50.958 24.9482C51.1104 24.9482 51.2178 24.9082 51.2803 24.8281C51.3428 24.748 51.374 24.6572 51.374 24.5557ZM5.31055 34.0303L6.14258 31.8301H6.83105L5.59473 35H5.02637L3.7959 31.8301H4.48438L5.31055 34.0303ZM4.28223 31.8301V35H3.43848V31.8301H4.28223ZM6.35938 35V31.8301H7.20312V35H6.35938ZM9.65234 34.2852V32.873C9.65234 32.7715 9.63574 32.6846 9.60254 32.6123C9.56934 32.5381 9.51758 32.4805 9.44727 32.4395C9.37891 32.3984 9.29004 32.3779 9.18066 32.3779C9.08691 32.3779 9.00586 32.3945 8.9375 32.4277C8.86914 32.459 8.81641 32.5049 8.7793 32.5654C8.74219 32.624 8.72363 32.6934 8.72363 32.7734H7.87988C7.87988 32.6387 7.91113 32.5107 7.97363 32.3896C8.03613 32.2686 8.12695 32.1621 8.24609 32.0703C8.36523 31.9766 8.50684 31.9033 8.6709 31.8506C8.83691 31.7979 9.02246 31.7715 9.22754 31.7715C9.47363 31.7715 9.69238 31.8125 9.88379 31.8945C10.0752 31.9766 10.2256 32.0996 10.335 32.2637C10.4463 32.4277 10.502 32.6328 10.502 32.8789V34.2354C10.502 34.4092 10.5127 34.5518 10.5342 34.6631C10.5557 34.7725 10.5869 34.8682 10.6279 34.9502V35H9.77539C9.73438 34.9141 9.70312 34.8066 9.68164 34.6777C9.66211 34.5469 9.65234 34.416 9.65234 34.2852ZM9.76367 33.0693L9.76953 33.5469H9.29785C9.18652 33.5469 9.08984 33.5596 9.00781 33.585C8.92578 33.6104 8.8584 33.6465 8.80566 33.6934C8.75293 33.7383 8.71387 33.791 8.68848 33.8516C8.66504 33.9121 8.65332 33.9785 8.65332 34.0508C8.65332 34.123 8.66992 34.1885 8.70312 34.2471C8.73633 34.3037 8.78418 34.3486 8.84668 34.3818C8.90918 34.4131 8.98242 34.4287 9.06641 34.4287C9.19336 34.4287 9.30371 34.4033 9.39746 34.3525C9.49121 34.3018 9.56348 34.2393 9.61426 34.165C9.66699 34.0908 9.69434 34.0205 9.69629 33.9541L9.91895 34.3115C9.8877 34.3916 9.84473 34.4746 9.79004 34.5605C9.7373 34.6465 9.66992 34.7275 9.58789 34.8037C9.50586 34.8779 9.40723 34.9395 9.29199 34.9883C9.17676 35.0352 9.04004 35.0586 8.88184 35.0586C8.68066 35.0586 8.49805 35.0186 8.33398 34.9385C8.17188 34.8564 8.04297 34.7441 7.94727 34.6016C7.85352 34.457 7.80664 34.293 7.80664 34.1094C7.80664 33.9434 7.83789 33.7959 7.90039 33.667C7.96289 33.5381 8.05469 33.4297 8.17578 33.3418C8.29883 33.252 8.45215 33.1846 8.63574 33.1396C8.81934 33.0928 9.03223 33.0693 9.27441 33.0693H9.76367ZM11.1494 31.8301H11.9932V34.3408H12.8691V31.8301H13.7188V34.3408H14.5918V31.8301H15.4355V35H11.1494V31.8301ZM16.9561 33.8223L18.0195 31.8301H18.8633V35H18.0195V33.0049L16.9561 35H16.1123V31.8301H16.9561V33.8223ZM21.6846 33.1104V33.7666H20.0732V33.1104H21.6846ZM20.3545 31.8301V35H19.5107V31.8301H20.3545ZM22.2559 31.8301V35H21.4092V31.8301H22.2559ZM22.7773 33.4473V33.3857C22.7773 33.1533 22.8105 32.9395 22.877 32.7441C22.9434 32.5469 23.04 32.376 23.167 32.2314C23.2939 32.0869 23.4502 31.9746 23.6357 31.8945C23.8213 31.8125 24.0342 31.7715 24.2744 31.7715C24.5146 31.7715 24.7285 31.8125 24.916 31.8945C25.1035 31.9746 25.2607 32.0869 25.3877 32.2314C25.5166 32.376 25.6143 32.5469 25.6807 32.7441C25.7471 32.9395 25.7803 33.1533 25.7803 33.3857V33.4473C25.7803 33.6777 25.7471 33.8916 25.6807 34.0889C25.6143 34.2842 25.5166 34.4551 25.3877 34.6016C25.2607 34.7461 25.1045 34.8584 24.9189 34.9385C24.7334 35.0186 24.5205 35.0586 24.2803 35.0586C24.04 35.0586 23.8262 35.0186 23.6387 34.9385C23.4531 34.8584 23.2959 34.7461 23.167 34.6016C23.04 34.4551 22.9434 34.2842 22.877 34.0889C22.8105 33.8916 22.7773 33.6777 22.7773 33.4473ZM23.6211 33.3857V33.4473C23.6211 33.5801 23.6328 33.7041 23.6562 33.8193C23.6797 33.9346 23.7168 34.0361 23.7676 34.124C23.8203 34.21 23.8887 34.2773 23.9727 34.3262C24.0566 34.375 24.1592 34.3994 24.2803 34.3994C24.3975 34.3994 24.498 34.375 24.582 34.3262C24.666 34.2773 24.7334 34.21 24.7842 34.124C24.835 34.0361 24.8721 33.9346 24.8955 33.8193C24.9209 33.7041 24.9336 33.5801 24.9336 33.4473V33.3857C24.9336 33.2568 24.9209 33.1357 24.8955 33.0225C24.8721 32.9072 24.834 32.8057 24.7812 32.7178C24.7305 32.6279 24.6631 32.5576 24.5791 32.5068C24.4951 32.4561 24.3936 32.4307 24.2744 32.4307C24.1553 32.4307 24.0537 32.4561 23.9697 32.5068C23.8877 32.5576 23.8203 32.6279 23.7676 32.7178C23.7168 32.8057 23.6797 32.9072 23.6562 33.0225C23.6328 33.1357 23.6211 33.2568 23.6211 33.3857ZM27.6084 34.3994C27.7119 34.3994 27.8037 34.3799 27.8838 34.3408C27.9639 34.2998 28.0264 34.2432 28.0713 34.1709C28.1182 34.0967 28.1426 34.0098 28.1445 33.9102H28.9385C28.9365 34.1328 28.877 34.3311 28.7598 34.5049C28.6426 34.6768 28.4854 34.8125 28.2881 34.9121C28.0908 35.0098 27.8701 35.0586 27.626 35.0586C27.3799 35.0586 27.165 35.0176 26.9814 34.9355C26.7998 34.8535 26.6484 34.7402 26.5273 34.5957C26.4062 34.4492 26.3154 34.2793 26.2549 34.0859C26.1943 33.8906 26.1641 33.6816 26.1641 33.459V33.374C26.1641 33.1494 26.1943 32.9404 26.2549 32.7471C26.3154 32.5518 26.4062 32.3818 26.5273 32.2373C26.6484 32.0908 26.7998 31.9766 26.9814 31.8945C27.1631 31.8125 27.376 31.7715 27.6201 31.7715C27.8799 31.7715 28.1074 31.8213 28.3027 31.9209C28.5 32.0205 28.6543 32.1631 28.7656 32.3486C28.8789 32.5322 28.9365 32.75 28.9385 33.002H28.1445C28.1426 32.8965 28.1201 32.8008 28.0771 32.7148C28.0361 32.6289 27.9756 32.5605 27.8955 32.5098C27.8174 32.457 27.7207 32.4307 27.6055 32.4307C27.4824 32.4307 27.3818 32.457 27.3037 32.5098C27.2256 32.5605 27.165 32.6309 27.1221 32.7207C27.0791 32.8086 27.0488 32.9092 27.0312 33.0225C27.0156 33.1338 27.0078 33.251 27.0078 33.374V33.459C27.0078 33.582 27.0156 33.7002 27.0312 33.8135C27.0469 33.9268 27.0762 34.0273 27.1191 34.1152C27.1641 34.2031 27.2256 34.2725 27.3037 34.3232C27.3818 34.374 27.4834 34.3994 27.6084 34.3994ZM31.042 31.8301V35H30.1953V31.8301H31.042ZM32.0615 31.8301V32.4834H29.1904V31.8301H32.0615ZM33.3359 32.4395V36.2188H32.4922V31.8301H33.2744L33.3359 32.4395ZM35.3428 33.3799V33.4414C35.3428 33.6719 35.3154 33.8857 35.2607 34.083C35.208 34.2803 35.1299 34.4521 35.0264 34.5986C34.9229 34.7432 34.7939 34.8564 34.6396 34.9385C34.4873 35.0186 34.3115 35.0586 34.1123 35.0586C33.9189 35.0586 33.751 35.0195 33.6084 34.9414C33.4658 34.8633 33.3457 34.7539 33.248 34.6133C33.1523 34.4707 33.0752 34.3057 33.0166 34.1182C32.958 33.9307 32.9131 33.7295 32.8818 33.5146V33.3535C32.9131 33.123 32.958 32.9121 33.0166 32.7207C33.0752 32.5273 33.1523 32.3604 33.248 32.2197C33.3457 32.0771 33.4648 31.9668 33.6055 31.8887C33.748 31.8105 33.915 31.7715 34.1064 31.7715C34.3076 31.7715 34.4844 31.8096 34.6367 31.8857C34.791 31.9619 34.9199 32.0713 35.0234 32.2139C35.1289 32.3564 35.208 32.5264 35.2607 32.7236C35.3154 32.9209 35.3428 33.1396 35.3428 33.3799ZM34.4961 33.4414V33.3799C34.4961 33.2451 34.4844 33.1211 34.4609 33.0078C34.4395 32.8926 34.4043 32.792 34.3555 32.7061C34.3086 32.6201 34.2461 32.5537 34.168 32.5068C34.0918 32.458 33.999 32.4336 33.8896 32.4336C33.7744 32.4336 33.6758 32.4521 33.5938 32.4893C33.5137 32.5264 33.4482 32.5801 33.3975 32.6504C33.3467 32.7207 33.3086 32.8047 33.2832 32.9023C33.2578 33 33.2422 33.1104 33.2363 33.2334V33.6406C33.2461 33.7852 33.2734 33.915 33.3184 34.0303C33.3633 34.1436 33.4326 34.2334 33.5264 34.2998C33.6201 34.3662 33.7432 34.3994 33.8955 34.3994C34.0068 34.3994 34.1006 34.375 34.1768 34.3262C34.2529 34.2754 34.3145 34.2061 34.3613 34.1182C34.4102 34.0303 34.4443 33.9287 34.4639 33.8135C34.4854 33.6982 34.4961 33.5742 34.4961 33.4414ZM35.7324 33.4473V33.3857C35.7324 33.1533 35.7656 32.9395 35.832 32.7441C35.8984 32.5469 35.9951 32.376 36.1221 32.2314C36.249 32.0869 36.4053 31.9746 36.5908 31.8945C36.7764 31.8125 36.9893 31.7715 37.2295 31.7715C37.4697 31.7715 37.6836 31.8125 37.8711 31.8945C38.0586 31.9746 38.2158 32.0869 38.3428 32.2314C38.4717 32.376 38.5693 32.5469 38.6357 32.7441C38.7021 32.9395 38.7354 33.1533 38.7354 33.3857V33.4473C38.7354 33.6777 38.7021 33.8916 38.6357 34.0889C38.5693 34.2842 38.4717 34.4551 38.3428 34.6016C38.2158 34.7461 38.0596 34.8584 37.874 34.9385C37.6885 35.0186 37.4756 35.0586 37.2354 35.0586C36.9951 35.0586 36.7812 35.0186 36.5938 34.9385C36.4082 34.8584 36.251 34.7461 36.1221 34.6016C35.9951 34.4551 35.8984 34.2842 35.832 34.0889C35.7656 33.8916 35.7324 33.6777 35.7324 33.4473ZM36.5762 33.3857V33.4473C36.5762 33.5801 36.5879 33.7041 36.6113 33.8193C36.6348 33.9346 36.6719 34.0361 36.7227 34.124C36.7754 34.21 36.8438 34.2773 36.9277 34.3262C37.0117 34.375 37.1143 34.3994 37.2354 34.3994C37.3525 34.3994 37.4531 34.375 37.5371 34.3262C37.6211 34.2773 37.6885 34.21 37.7393 34.124C37.79 34.0361 37.8271 33.9346 37.8506 33.8193C37.876 33.7041 37.8887 33.5801 37.8887 33.4473V33.3857C37.8887 33.2568 37.876 33.1357 37.8506 33.0225C37.8271 32.9072 37.7891 32.8057 37.7363 32.7178C37.6855 32.6279 37.6182 32.5576 37.5342 32.5068C37.4502 32.4561 37.3486 32.4307 37.2295 32.4307C37.1104 32.4307 37.0088 32.4561 36.9248 32.5068C36.8428 32.5576 36.7754 32.6279 36.7227 32.7178C36.6719 32.8057 36.6348 32.9072 36.6113 33.0225C36.5879 33.1357 36.5762 33.2568 36.5762 33.3857ZM40.0947 33.8223L41.1582 31.8301H42.002V35H41.1582V33.0049L40.0947 35H39.251V31.8301H40.0947V33.8223ZM44.2666 31.8301V35H43.4199V31.8301H44.2666ZM45.2861 31.8301V32.4834H42.415V31.8301H45.2861ZM46.9707 35.0586C46.7246 35.0586 46.5039 35.0195 46.3086 34.9414C46.1133 34.8613 45.9473 34.751 45.8105 34.6104C45.6758 34.4697 45.5723 34.3066 45.5 34.1211C45.4277 33.9336 45.3916 33.7344 45.3916 33.5234V33.4062C45.3916 33.166 45.4258 32.9463 45.4941 32.7471C45.5625 32.5479 45.6602 32.375 45.7871 32.2285C45.916 32.082 46.0723 31.9697 46.2559 31.8916C46.4395 31.8115 46.6465 31.7715 46.877 31.7715C47.1016 31.7715 47.3008 31.8086 47.4746 31.8828C47.6484 31.957 47.7939 32.0625 47.9111 32.1992C48.0303 32.3359 48.1201 32.5 48.1807 32.6914C48.2412 32.8809 48.2715 33.0918 48.2715 33.3242V33.6758H45.752V33.1133H47.4424V33.0488C47.4424 32.9316 47.4209 32.8271 47.3779 32.7354C47.3369 32.6416 47.2744 32.5674 47.1904 32.5127C47.1064 32.458 46.999 32.4307 46.8682 32.4307C46.7568 32.4307 46.6611 32.4551 46.5811 32.5039C46.501 32.5527 46.4355 32.6211 46.3848 32.709C46.3359 32.7969 46.2988 32.9004 46.2734 33.0195C46.25 33.1367 46.2383 33.2656 46.2383 33.4062V33.5234C46.2383 33.6504 46.2559 33.7676 46.291 33.875C46.3281 33.9824 46.3799 34.0752 46.4463 34.1533C46.5146 34.2314 46.5967 34.292 46.6924 34.335C46.79 34.3779 46.9004 34.3994 47.0234 34.3994C47.1758 34.3994 47.3174 34.3701 47.4482 34.3115C47.5811 34.251 47.6953 34.1602 47.791 34.0391L48.2012 34.4844C48.1348 34.5801 48.0439 34.6719 47.9287 34.7598C47.8154 34.8477 47.6787 34.9199 47.5186 34.9766C47.3584 35.0312 47.1758 35.0586 46.9707 35.0586ZM50.8848 31.8301V32.4922H49.3262V31.8301H50.8848ZM51.5029 31.8301V35H50.6592V31.8301H51.5029ZM49.1152 31.8301H49.9443L49.8594 33.4297C49.8477 33.6582 49.8232 33.8594 49.7861 34.0332C49.749 34.207 49.6992 34.3555 49.6367 34.4785C49.5762 34.6016 49.5029 34.7021 49.417 34.7803C49.333 34.8564 49.2344 34.9121 49.1211 34.9473C49.0098 34.9824 48.8867 35 48.752 35H48.4941L48.4854 34.335L48.5938 34.3232C48.6562 34.3174 48.7109 34.2998 48.7578 34.2705C48.8066 34.2393 48.8477 34.1953 48.8809 34.1387C48.916 34.0801 48.9453 34.0068 48.9688 33.9189C48.9922 33.8291 49.0107 33.7236 49.0244 33.6025C49.04 33.4814 49.0508 33.3418 49.0566 33.1836L49.1152 31.8301ZM52.7393 32.7705H53.6592C53.9482 32.7705 54.1943 32.8184 54.3975 32.9141C54.6025 33.0078 54.7588 33.1387 54.8662 33.3066C54.9756 33.4746 55.0303 33.6689 55.0303 33.8896C55.0303 34.0498 54.999 34.1982 54.9365 34.335C54.876 34.4697 54.7871 34.5869 54.6699 34.6865C54.5527 34.7861 54.4092 34.8633 54.2393 34.918C54.0693 34.9727 53.876 35 53.6592 35H52.2119V31.8301H53.0586V34.3438H53.6592C53.7861 34.3438 53.8877 34.3232 53.9639 34.2822C54.042 34.2393 54.0986 34.1836 54.1338 34.1152C54.1709 34.0469 54.1895 33.9727 54.1895 33.8926C54.1895 33.8086 54.1709 33.7324 54.1338 33.6641C54.0986 33.5938 54.042 33.5371 53.9639 33.4941C53.8877 33.4512 53.7861 33.4297 53.6592 33.4297H52.7393V32.7705ZM57.6787 33.1104V33.7666H56.0674V33.1104H57.6787ZM56.3486 31.8301V35H55.5049V31.8301H56.3486ZM58.25 31.8301V35H57.4033V31.8301H58.25ZM59.4893 32.7705H60.4092C60.6982 32.7705 60.9443 32.8184 61.1475 32.9141C61.3525 33.0078 61.5088 33.1387 61.6162 33.3066C61.7256 33.4746 61.7803 33.6689 61.7803 33.8896C61.7803 34.0498 61.749 34.1982 61.6865 34.335C61.626 34.4697 61.5371 34.5869 61.4199 34.6865C61.3027 34.7861 61.1592 34.8633 60.9893 34.918C60.8193 34.9727 60.626 35 60.4092 35H58.9619V31.8301H59.8086V34.3438H60.4092C60.5361 34.3438 60.6377 34.3232 60.7139 34.2822C60.792 34.2393 60.8486 34.1836 60.8838 34.1152C60.9209 34.0469 60.9395 33.9727 60.9395 33.8926C60.9395 33.8086 60.9209 33.7324 60.8838 33.6641C60.8486 33.5938 60.792 33.5371 60.7139 33.4941C60.6377 33.4512 60.5361 33.4297 60.4092 33.4297H59.4893V32.7705ZM63.1338 31.8301V35H62.29V31.8301H63.1338ZM64.7158 33.8223L65.7793 31.8301H66.623V35H65.7793V33.0049L64.7158 35H63.8721V31.8301H64.7158V33.8223ZM65.6826 30.5557H66.2832C66.2832 30.7236 66.2412 30.873 66.1572 31.0039C66.0752 31.1328 65.958 31.2344 65.8057 31.3086C65.6533 31.3809 65.4736 31.417 65.2666 31.417C64.9521 31.417 64.7031 31.3369 64.5195 31.1768C64.3379 31.0166 64.2471 30.8096 64.2471 30.5557H64.8447C64.8447 30.6572 64.876 30.748 64.9385 30.8281C65.0029 30.9082 65.1123 30.9482 65.2666 30.9482C65.4189 30.9482 65.5264 30.9082 65.5889 30.8281C65.6514 30.748 65.6826 30.6572 65.6826 30.5557ZM28.4141 39.4883H27.7871V39.1104H28.2354C28.3408 39.1104 28.4248 39.0957 28.4873 39.0664C28.5518 39.0371 28.5977 38.9961 28.625 38.9434C28.6543 38.8887 28.6689 38.8271 28.6689 38.7588C28.6689 38.6982 28.6562 38.6406 28.6309 38.5859C28.6074 38.5293 28.5645 38.4834 28.502 38.4482C28.4414 38.4111 28.3555 38.3926 28.2441 38.3926C28.1523 38.3926 28.0703 38.4062 27.998 38.4336C27.9277 38.4609 27.8721 38.501 27.8311 38.5537C27.792 38.6045 27.7725 38.666 27.7725 38.7383H26.9258C26.9258 38.5371 26.9834 38.3652 27.0986 38.2227C27.2139 38.0781 27.3682 37.9678 27.5615 37.8916C27.7549 37.8135 27.9668 37.7744 28.1973 37.7744C28.3984 37.7744 28.5801 37.7949 28.7422 37.8359C28.9043 37.875 29.043 37.9336 29.1582 38.0117C29.2734 38.0898 29.3613 38.1865 29.4219 38.3018C29.4844 38.415 29.5156 38.5469 29.5156 38.6973C29.5156 38.8047 29.4902 38.9062 29.4395 39.002C29.3887 39.0977 29.3154 39.1826 29.2197 39.2568C29.124 39.3291 29.0078 39.3857 28.8711 39.4268C28.7363 39.4678 28.584 39.4883 28.4141 39.4883ZM27.7871 39.2773H28.4141C28.6035 39.2773 28.7695 39.2959 28.9121 39.333C29.0566 39.3682 29.1777 39.4209 29.2754 39.4912C29.373 39.5615 29.4463 39.6484 29.4951 39.752C29.5459 39.8535 29.5713 39.9707 29.5713 40.1035C29.5713 40.2539 29.5381 40.3887 29.4717 40.5078C29.4053 40.625 29.3105 40.7246 29.1875 40.8066C29.0645 40.8887 28.9189 40.9512 28.751 40.9941C28.583 41.0371 28.3984 41.0586 28.1973 41.0586C27.9824 41.0586 27.7734 41.0234 27.5703 40.9531C27.3672 40.8828 27.2002 40.7744 27.0693 40.6279C26.9404 40.4814 26.876 40.293 26.876 40.0625H27.7227C27.7227 40.1289 27.7422 40.1914 27.7812 40.25C27.8203 40.3086 27.8789 40.3555 27.957 40.3906C28.0352 40.4238 28.1318 40.4404 28.2471 40.4404C28.3623 40.4404 28.4551 40.4219 28.5254 40.3848C28.5957 40.3477 28.6465 40.2988 28.6777 40.2383C28.7109 40.1758 28.7275 40.1113 28.7275 40.0449C28.7275 39.9512 28.709 39.875 28.6719 39.8164C28.6367 39.7578 28.582 39.7148 28.5078 39.6875C28.4355 39.6602 28.3447 39.6465 28.2354 39.6465H27.7871V39.2773ZM31.8008 40.2852V38.873C31.8008 38.7715 31.7842 38.6846 31.751 38.6123C31.7178 38.5381 31.666 38.4805 31.5957 38.4395C31.5273 38.3984 31.4385 38.3779 31.3291 38.3779C31.2354 38.3779 31.1543 38.3945 31.0859 38.4277C31.0176 38.459 30.9648 38.5049 30.9277 38.5654C30.8906 38.624 30.8721 38.6934 30.8721 38.7734H30.0283C30.0283 38.6387 30.0596 38.5107 30.1221 38.3896C30.1846 38.2686 30.2754 38.1621 30.3945 38.0703C30.5137 37.9766 30.6553 37.9033 30.8193 37.8506C30.9854 37.7979 31.1709 37.7715 31.376 37.7715C31.6221 37.7715 31.8408 37.8125 32.0322 37.8945C32.2236 37.9766 32.374 38.0996 32.4834 38.2637C32.5947 38.4277 32.6504 38.6328 32.6504 38.8789V40.2354C32.6504 40.4092 32.6611 40.5518 32.6826 40.6631C32.7041 40.7725 32.7354 40.8682 32.7764 40.9502V41H31.9238C31.8828 40.9141 31.8516 40.8066 31.8301 40.6777C31.8105 40.5469 31.8008 40.416 31.8008 40.2852ZM31.9121 39.0693L31.918 39.5469H31.4463C31.335 39.5469 31.2383 39.5596 31.1562 39.585C31.0742 39.6104 31.0068 39.6465 30.9541 39.6934C30.9014 39.7383 30.8623 39.791 30.8369 39.8516C30.8135 39.9121 30.8018 39.9785 30.8018 40.0508C30.8018 40.123 30.8184 40.1885 30.8516 40.2471C30.8848 40.3037 30.9326 40.3486 30.9951 40.3818C31.0576 40.4131 31.1309 40.4287 31.2148 40.4287C31.3418 40.4287 31.4521 40.4033 31.5459 40.3525C31.6396 40.3018 31.7119 40.2393 31.7627 40.165C31.8154 40.0908 31.8428 40.0205 31.8447 39.9541L32.0674 40.3115C32.0361 40.3916 31.9932 40.4746 31.9385 40.5605C31.8857 40.6465 31.8184 40.7275 31.7363 40.8037C31.6543 40.8779 31.5557 40.9395 31.4404 40.9883C31.3252 41.0352 31.1885 41.0586 31.0303 41.0586C30.8291 41.0586 30.6465 41.0186 30.4824 40.9385C30.3203 40.8564 30.1914 40.7441 30.0957 40.6016C30.002 40.457 29.9551 40.293 29.9551 40.1094C29.9551 39.9434 29.9863 39.7959 30.0488 39.667C30.1113 39.5381 30.2031 39.4297 30.3242 39.3418C30.4473 39.252 30.6006 39.1846 30.7842 39.1396C30.9678 39.0928 31.1807 39.0693 31.4229 39.0693H31.9121ZM34.8799 39.6758H33.8867L33.8809 39.1221H34.7012C34.8105 39.1221 34.8994 39.1113 34.9678 39.0898C35.0361 39.0664 35.0859 39.0322 35.1172 38.9873C35.1504 38.9404 35.167 38.8838 35.167 38.8174C35.167 38.7588 35.1562 38.709 35.1348 38.668C35.1152 38.625 35.085 38.5898 35.0439 38.5625C35.0029 38.5352 34.9512 38.5156 34.8887 38.5039C34.8281 38.4902 34.7568 38.4834 34.6748 38.4834H34.2002V41H33.3564V37.8301H34.6748C34.8818 37.8301 35.0674 37.8486 35.2314 37.8857C35.3955 37.9209 35.5352 37.9746 35.6504 38.0469C35.7676 38.1191 35.8564 38.2109 35.917 38.3223C35.9795 38.4316 36.0107 38.5615 36.0107 38.7119C36.0107 38.8096 35.9883 38.9014 35.9434 38.9873C35.9004 39.0732 35.8359 39.1494 35.75 39.2158C35.6641 39.2822 35.5576 39.3369 35.4307 39.3799C35.3057 39.4209 35.1611 39.4463 34.9971 39.4561L34.8799 39.6758ZM34.8799 41H33.6787L33.9688 40.3467H34.8799C34.9834 40.3467 35.0684 40.334 35.1348 40.3086C35.2012 40.2832 35.25 40.2461 35.2812 40.1973C35.3145 40.1465 35.3311 40.0859 35.3311 40.0156C35.3311 39.9473 35.3164 39.8877 35.2871 39.8369C35.2578 39.7861 35.21 39.7471 35.1436 39.7197C35.0791 39.6904 34.9912 39.6758 34.8799 39.6758H34.0918L34.0977 39.1221H34.9941L35.1992 39.3447C35.4219 39.3584 35.6055 39.4004 35.75 39.4707C35.8945 39.541 36.001 39.6309 36.0693 39.7402C36.1396 39.8477 36.1748 39.9658 36.1748 40.0947C36.1748 40.2451 36.1465 40.377 36.0898 40.4902C36.0332 40.6035 35.9492 40.6982 35.8379 40.7744C35.7285 40.8486 35.5938 40.9053 35.4336 40.9443C35.2734 40.9814 35.0889 41 34.8799 41ZM36.5586 39.4473V39.3857C36.5586 39.1533 36.5918 38.9395 36.6582 38.7441C36.7246 38.5469 36.8213 38.376 36.9482 38.2314C37.0752 38.0869 37.2314 37.9746 37.417 37.8945C37.6025 37.8125 37.8154 37.7715 38.0557 37.7715C38.2959 37.7715 38.5098 37.8125 38.6973 37.8945C38.8848 37.9746 39.042 38.0869 39.1689 38.2314C39.2979 38.376 39.3955 38.5469 39.4619 38.7441C39.5283 38.9395 39.5615 39.1533 39.5615 39.3857V39.4473C39.5615 39.6777 39.5283 39.8916 39.4619 40.0889C39.3955 40.2842 39.2979 40.4551 39.1689 40.6016C39.042 40.7461 38.8857 40.8584 38.7002 40.9385C38.5146 41.0186 38.3018 41.0586 38.0615 41.0586C37.8213 41.0586 37.6074 41.0186 37.4199 40.9385C37.2344 40.8584 37.0771 40.7461 36.9482 40.6016C36.8213 40.4551 36.7246 40.2842 36.6582 40.0889C36.5918 39.8916 36.5586 39.6777 36.5586 39.4473ZM37.4023 39.3857V39.4473C37.4023 39.5801 37.4141 39.7041 37.4375 39.8193C37.4609 39.9346 37.498 40.0361 37.5488 40.124C37.6016 40.21 37.6699 40.2773 37.7539 40.3262C37.8379 40.375 37.9404 40.3994 38.0615 40.3994C38.1787 40.3994 38.2793 40.375 38.3633 40.3262C38.4473 40.2773 38.5146 40.21 38.5654 40.124C38.6162 40.0361 38.6533 39.9346 38.6768 39.8193C38.7021 39.7041 38.7148 39.5801 38.7148 39.4473V39.3857C38.7148 39.2568 38.7021 39.1357 38.6768 39.0225C38.6533 38.9072 38.6152 38.8057 38.5625 38.7178C38.5117 38.6279 38.4443 38.5576 38.3604 38.5068C38.2764 38.4561 38.1748 38.4307 38.0557 38.4307C37.9365 38.4307 37.835 38.4561 37.751 38.5068C37.6689 38.5576 37.6016 38.6279 37.5488 38.7178C37.498 38.8057 37.4609 38.9072 37.4375 39.0225C37.4141 39.1357 37.4023 39.2568 37.4023 39.3857ZM40.4404 37.8301H41.2842L41.2578 38.8906C41.25 39.2305 41.2109 39.5225 41.1406 39.7666C41.0703 40.0107 40.9766 40.2158 40.8594 40.3818C40.7422 40.5479 40.6084 40.6807 40.458 40.7803C40.3096 40.8779 40.1533 40.9512 39.9893 41H39.8311L39.8223 40.3496L39.9102 40.3408C40.0098 40.2373 40.0918 40.1367 40.1562 40.0391C40.2207 39.9395 40.2705 39.835 40.3057 39.7256C40.3408 39.6162 40.3662 39.4941 40.3818 39.3594C40.3994 39.2246 40.4102 39.0684 40.4141 38.8906L40.4404 37.8301ZM40.6689 37.8301H42.7695V41H41.9287V38.5068H40.6689V37.8301ZM39.6377 40.3408H43.2236V41.9521H42.3799V41H40.502V41.9521H39.6377V40.3408Z" fill="#161616"/>
</svg>
